<svg xmlns="http://www.w3.org/2000/svg" xmlns:svg="http://www.w3.org/2000/svg" xmlns:xlink="http://www.w3.org/1999/xlink" id="svg670" width="340" height="500" version="1.1" viewBox="0 0 340 500"><defs id="defs241"><linearGradient id="color-primary"><stop id="stop22" offset="1" stop-color="#F06292"/></linearGradient><g id="base-scale-horz-trough"><rect id="rect155" width="24" height="24" x="0" y="0" fill="none"/><rect id="rect157" width="12" height="2" x="6" y="11"/></g><g id="base-scale-vert-trough"><use id="use160" width="100%" height="100%" x="0" y="0" transform="rotate(90,12,12)" xlink:href="#base-scale-horz-trough"/></g><linearGradient id="linearGradient2364" x1="408" x2="456" y1="58" y2="58" gradientUnits="userSpaceOnUse" xlink:href="#color-primary"/><clipPath id="clipPath6290" clipPathUnits="userSpaceOnUse"><rect style="opacity:.35;fill:#000;stroke-width:2;stroke-linecap:round;stroke-linejoin:round;paint-order:stroke fill markers" id="rect6292" width="28" height="132" x="164" y="12" rx="0" ry="0"/></clipPath><clipPath id="clipPath6490" clipPathUnits="userSpaceOnUse"><rect style="opacity:.35;fill:#000;stroke-width:2;stroke-linecap:round;stroke-linejoin:round;paint-order:stroke fill markers" id="rect6492" width="26" height="16" x="164" y="78" rx="0" ry="0"/></clipPath><linearGradient id="linearGradient2229" x1="0" x2="24" y1="0" y2="0" gradientUnits="userSpaceOnUse" xlink:href="#color-primary"/><linearGradient id="linearGradient2231" x1="6" x2="18" y1="6" y2="6" gradientUnits="userSpaceOnUse" xlink:href="#color-primary"/><linearGradient id="linearGradient2233" x1="0" x2="24" y1="0" y2="0" gradientUnits="userSpaceOnUse" xlink:href="#color-primary"/><linearGradient id="linearGradient2235" x1="0" x2="24" y1="0" y2="0" gradientUnits="userSpaceOnUse" xlink:href="#color-primary"/><linearGradient id="linearGradient2237" x1="6" x2="18" y1="6" y2="6" gradientUnits="userSpaceOnUse" xlink:href="#color-primary"/><linearGradient id="linearGradient2239" x1="0" x2="24" y1="0" y2="0" gradientUnits="userSpaceOnUse" xlink:href="#color-primary"/><linearGradient id="linearGradient2241" x1="0" x2="24" y1="0" y2="0" gradientUnits="userSpaceOnUse" xlink:href="#color-primary"/><linearGradient id="linearGradient2243" x1="6" x2="18" y1="6" y2="6" gradientUnits="userSpaceOnUse" xlink:href="#color-primary"/><linearGradient id="linearGradient2245" x1="0" x2="24" y1="0" y2="0" gradientUnits="userSpaceOnUse" xlink:href="#color-primary"/><linearGradient id="linearGradient2253" x1="0" x2="24" y1="0" y2="0" gradientUnits="userSpaceOnUse" xlink:href="#color-primary"/><linearGradient id="linearGradient2259" x1="0" x2="24" y1="0" y2="0" gradientUnits="userSpaceOnUse" xlink:href="#color-primary"/><linearGradient id="linearGradient2337" x1="0" x2="1" y1="0" y2="0" gradientUnits="userSpaceOnUse" xlink:href="#color-primary"/><linearGradient id="linearGradient2339" x1="0" x2="4" y1="0" y2="0" gradientUnits="userSpaceOnUse" xlink:href="#color-primary"/><linearGradient id="linearGradient1317" x1="286" x2="306" y1="160" y2="160" gradientUnits="userSpaceOnUse" xlink:href="#color-primary"/><linearGradient id="linearGradient1327" x1="286" x2="306" y1="188" y2="188" gradientUnits="userSpaceOnUse" xlink:href="#color-primary"/><linearGradient id="linearGradient1319" x1="314" x2="334" y1="160" y2="160" gradientUnits="userSpaceOnUse" xlink:href="#color-primary"/><linearGradient id="linearGradient1329" x1="314" x2="334" y1="188" y2="188" gradientUnits="userSpaceOnUse" xlink:href="#color-primary"/><linearGradient id="linearGradient2232" x1="348" x2="364" y1="160" y2="160" gradientUnits="userSpaceOnUse" xlink:href="#color-primary"/><linearGradient id="linearGradient2228" x1="372" x2="388" y1="188" y2="188" gradientUnits="userSpaceOnUse" xlink:href="#color-primary"/><linearGradient id="linearGradient2234" x1="372" x2="388" y1="160" y2="160" gradientUnits="userSpaceOnUse" xlink:href="#color-primary"/><linearGradient id="linearGradient2230" x1="348" x2="364" y1="188" y2="188" gradientUnits="userSpaceOnUse" xlink:href="#color-primary"/><linearGradient id="linearGradient2662" x1="286" x2="306" y1="160" y2="160" gradientUnits="userSpaceOnUse" xlink:href="#color-primary"/><linearGradient id="linearGradient2664" x1="286" x2="306" y1="188" y2="188" gradientUnits="userSpaceOnUse" xlink:href="#color-primary"/><linearGradient id="linearGradient2666" x1="314" x2="334" y1="160" y2="160" gradientUnits="userSpaceOnUse" xlink:href="#color-primary"/><linearGradient id="linearGradient2668" x1="314" x2="334" y1="188" y2="188" gradientUnits="userSpaceOnUse" xlink:href="#color-primary"/><linearGradient id="linearGradient2670" x1="348" x2="364" y1="160" y2="160" gradientUnits="userSpaceOnUse" xlink:href="#color-primary"/><linearGradient id="linearGradient2672" x1="372" x2="388" y1="188" y2="188" gradientUnits="userSpaceOnUse" xlink:href="#color-primary"/><linearGradient id="linearGradient2674" x1="372" x2="388" y1="160" y2="160" gradientUnits="userSpaceOnUse" xlink:href="#color-primary"/><linearGradient id="linearGradient2676" x1="348" x2="364" y1="188" y2="188" gradientUnits="userSpaceOnUse" xlink:href="#color-primary"/><linearGradient id="linearGradient2678" x1="286" x2="306" y1="160" y2="160" gradientUnits="userSpaceOnUse" xlink:href="#color-primary"/><linearGradient id="linearGradient2680" x1="314" x2="334" y1="160" y2="160" gradientUnits="userSpaceOnUse" xlink:href="#color-primary"/><linearGradient id="linearGradient2682" x1="286" x2="306" y1="160" y2="160" gradientUnits="userSpaceOnUse" xlink:href="#color-primary"/><linearGradient id="linearGradient2684" x1="314" x2="334" y1="160" y2="160" gradientUnits="userSpaceOnUse" xlink:href="#color-primary"/><linearGradient id="linearGradient2686" x1="286" x2="306" y1="188" y2="188" gradientUnits="userSpaceOnUse" xlink:href="#color-primary"/><linearGradient id="linearGradient2688" x1="314" x2="334" y1="188" y2="188" gradientUnits="userSpaceOnUse" xlink:href="#color-primary"/><linearGradient id="linearGradient2690" x1="286" x2="306" y1="188" y2="188" gradientUnits="userSpaceOnUse" xlink:href="#color-primary"/><linearGradient id="linearGradient2692" x1="314" x2="334" y1="188" y2="188" gradientUnits="userSpaceOnUse" xlink:href="#color-primary"/></defs><g id="layer1"><rect style="opacity:1;fill:#333;stroke-width:2;stroke-linecap:round;stroke-linejoin:round;paint-order:stroke fill markers" id="rect1318" width="340" height="500" x="0" y="0" rx="0" ry="0"/></g><g id="layer2"><g id="scale-slider" fill="url(#color-primary)" transform="translate(145,160)" style="fill:url(#linearGradient2233)"><circle id="circle450" cx="12" cy="12" r="12" fill-opacity="0" style="fill:url(#linearGradient2229)"/><circle id="circle452" cx="12" cy="12" r="6" style="fill:url(#linearGradient2231)"/></g><g id="scale-slider-hover" fill="url(#color-primary)" transform="translate(145,192)" style="fill:url(#linearGradient2239)"><circle id="circle455" cx="12" cy="12" r="12" fill-opacity=".08" style="fill:url(#linearGradient2235)"/><circle id="circle457" cx="12" cy="12" r="6" style="fill:url(#linearGradient2237)"/></g><g id="scale-slider-active" fill="url(#color-primary)" transform="translate(145,224)" style="fill:url(#linearGradient2245)"><circle id="circle460" cx="12" cy="12" r="12" fill-opacity=".2" style="fill:url(#linearGradient2241)"/><circle id="circle462" cx="12" cy="12" r="6" style="fill:url(#linearGradient2243)"/></g><g id="scale-horz-trough-active" transform="translate(177,224)"><use id="use475" width="100%" height="100%" x="0" y="0" fill="url(#color-primary)" xlink:href="#base-scale-horz-trough" style="fill:url(#linearGradient2253)"/></g><g id="scale-vert-trough-active" transform="translate(209,224)"><use id="use484" width="100%" height="100%" x="0" y="0" fill="url(#color-primary)" xlink:href="#base-scale-vert-trough" style="fill:url(#linearGradient2259)"/></g><g id="tab" transform="translate(281,288)"><rect id="rect610" width="1" height="1" y="0" fill="url(#color-primary)" style="fill:url(#linearGradient2337)" x="0"/></g><g id="progressbar-progress" transform="translate(293,288)"><rect id="rect613" width="4" height="4" y="0" fill="url(#color-primary)" style="fill:url(#linearGradient2339)" x="0"/></g><g id="checkbox-checked" transform="translate(-268,120)"><rect style="opacity:0;fill:#000;stroke-width:3;stroke-linecap:round;stroke-linejoin:round;paint-order:stroke fill markers" id="rect1125" width="24" height="24" x="284" y="148" rx="0" ry="0"/><path id="path3316" d="m 296,150 c -5.52,0 -10,4.48 -10,10 0,5.52 4.48,10 10,10 5.52,0 10,-4.48 10,-10 0,-5.52 -4.48,-10 -10,-10 z m 5.5898,4.5801 L 303,156 l -9,9 -5,-5 1.4102,-1.4102 3.5898,3.5801 z" style="fill:url(#linearGradient2662);fill-opacity:1"/></g><g id="checkbox-mixed" transform="translate(-268,204)"><rect style="opacity:0;fill:#000;stroke-width:3;stroke-linecap:round;stroke-linejoin:round;paint-order:stroke fill markers" id="rect1127" width="24" height="24" x="284" y="176" rx="0" ry="0"/><path id="path3325" d="m 296,178 c -5.52,0 -10,4.48 -10,10 0,5.52 4.48,10 10,10 5.52,0 10,-4.48 10,-10 0,-5.52 -4.48,-10 -10,-10 z m -5,9 h 10 v 2 h -10 z" style="fill:url(#linearGradient2664);fill-opacity:1"/></g><g id="radio-checked" transform="translate(-268,120)"><rect style="opacity:0;fill:#000;stroke-width:3;stroke-linecap:round;stroke-linejoin:round;paint-order:stroke fill markers" id="rect1133" width="24" height="24" x="312" y="148" rx="0" ry="0"/><path id="path3343" d="m 324,150 c -5.52,0 -10,4.48 -10,10 0,5.52 4.48,10 10,10 5.52,0 10,-4.48 10,-10 0,-5.52 -4.48,-10 -10,-10 z m 0,7 c 1.656,0 3,1.344 3,3 0,1.656 -1.344,3 -3,3 -1.656,0 -3,-1.344 -3,-3 0,-1.656 1.344,-3 3,-3 z" style="fill:url(#linearGradient2666);fill-opacity:1"/></g><g id="radio-mixed" transform="translate(-268,204)"><rect style="opacity:0;fill:#000;stroke-width:3;stroke-linecap:round;stroke-linejoin:round;paint-order:stroke fill markers" id="rect1135" width="24" height="24" x="312" y="176" rx="0" ry="0"/><path id="path1219" d="m 324,178 c -5.52,0 -10,4.48 -10,10 0,5.52 4.48,10 10,10 5.52,0 10,-4.48 10,-10 0,-5.52 -4.48,-10 -10,-10 z m -5,9 h 10 v 2 h -10 z" style="fill:url(#linearGradient2668);fill-opacity:1"/></g><g id="menu-checkbox-checked" transform="translate(-268,120)"><path id="path2092" d="m 356,152 a 8,8 0 0 0 -8,8 8,8 0 0 0 8,8 8,8 0 0 0 8,-8 8,8 0 0 0 -8,-8 z m 4.5996,3.5898 1.4102,1.4102 -8,8 -4,-4 1.4102,-1.4102 2.5898,2.5898 z" style="fill:url(#linearGradient2670);fill-opacity:1"/></g><g id="menu-radio-mixed" transform="translate(-268,204)"><path id="path2101" d="m 380,180 a 8,8 0 0 0 -8,8 8,8 0 0 0 8,8 8,8 0 0 0 8,-8 8,8 0 0 0 -8,-8 z m -4,7 h 8 v 2 h -8 z" style="fill:url(#linearGradient2672);fill-opacity:1"/></g><g id="menu-radio-checked" transform="translate(-268,120)"><path id="path2119" d="m 380,152 c -4.4183,0 -8,3.5817 -8,8 0,4.4183 3.5817,8 8,8 4.4183,0 8,-3.5817 8,-8 0,-4.4183 -3.5817,-8 -8,-8 z m 0,5 a 3,3 0 0 1 3,3 3,3 0 0 1 -3,3 3,3 0 0 1 -3,-3 3,3 0 0 1 3,-3 z" style="fill:url(#linearGradient2674);fill-opacity:1"/></g><g id="menu-checkbox-mixed" transform="translate(-268,204)"><path id="path2128" d="m 356,180 a 8,8 0 0 0 -8,8 8,8 0 0 0 8,8 8,8 0 0 0 8,-8 8,8 0 0 0 -8,-8 z m -4,7 h 8 v 2 h -8 z" style="fill:url(#linearGradient2676);fill-opacity:1"/></g><g id="checkbox-checked-hover" transform="translate(-268,148)"><path id="path2335" d="m 296,150 c -5.52,0 -10,4.48 -10,10 0,5.52 4.48,10 10,10 5.52,0 10,-4.48 10,-10 0,-5.52 -4.48,-10 -10,-10 z m 5.5898,4.5801 L 303,156 l -9,9 -5,-5 1.4102,-1.4102 3.5898,3.5801 z" style="fill:url(#linearGradient2678);fill-opacity:1"/><path id="path2361" d="m 296,150 c -5.52,0 -10,4.48 -10,10 0,5.52 4.48,10 10,10 5.52,0 10,-4.48 10,-10 0,-5.52 -4.48,-10 -10,-10 z m 5.5898,4.5801 L 303,156 l -9,9 -5,-5 1.4102,-1.4102 3.5898,3.5801 z" style="opacity:.15;fill:#fff;fill-opacity:1"/><rect style="opacity:0;fill:#000;stroke-width:3;stroke-linecap:round;stroke-linejoin:round;paint-order:stroke fill markers" id="rect2333" width="24" height="24" x="284" y="148" rx="0" ry="0"/></g><g id="radio-checked-hover" transform="translate(-268,148)"><path id="path2341" d="m 324,150 c -5.52,0 -10,4.48 -10,10 0,5.52 4.48,10 10,10 5.52,0 10,-4.48 10,-10 0,-5.52 -4.48,-10 -10,-10 z m 0,7 c 1.656,0 3,1.344 3,3 0,1.656 -1.344,3 -3,3 -1.656,0 -3,-1.344 -3,-3 0,-1.656 1.344,-3 3,-3 z" style="fill:url(#linearGradient2680);fill-opacity:1"/><path id="path2363" d="m 324,150 c -5.52,0 -10,4.48 -10,10 0,5.52 4.48,10 10,10 5.52,0 10,-4.48 10,-10 0,-5.52 -4.48,-10 -10,-10 z m 0,7 c 1.656,0 3,1.344 3,3 0,1.656 -1.344,3 -3,3 -1.656,0 -3,-1.344 -3,-3 0,-1.656 1.344,-3 3,-3 z" style="opacity:.15;fill:#fff;fill-opacity:1"/><rect style="opacity:0;fill:#000;stroke-width:3;stroke-linecap:round;stroke-linejoin:round;paint-order:stroke fill markers" id="rect2339" width="24" height="24" x="312" y="148" rx="0" ry="0"/></g><g id="menu-checkbox-checked-disabled" transform="translate(-268,148)" style="opacity:.35"><path id="path2561" d="m 356,152 a 8,8 0 0 0 -8,8 8,8 0 0 0 8,8 8,8 0 0 0 8,-8 8,8 0 0 0 -8,-8 z m 4.5996,3.5898 1.4102,1.4102 -8,8 -4,-4 1.4102,-1.4102 2.5898,2.5898 z" style="fill:url(#linearGradient2232);fill-opacity:1"/></g><g id="menu-radio-checked-disabled" transform="translate(-268,148)" style="opacity:.35"><path id="path2565" d="m 380,152 c -4.4183,0 -8,3.5817 -8,8 0,4.4183 3.5817,8 8,8 4.4183,0 8,-3.5817 8,-8 0,-4.4183 -3.5817,-8 -8,-8 z m 0,5 a 3,3 0 0 1 3,3 3,3 0 0 1 -3,3 3,3 0 0 1 -3,-3 3,3 0 0 1 3,-3 z" style="fill:url(#linearGradient2234);fill-opacity:1"/></g><g id="menu-radio-mixed-disabled" transform="translate(-268,232)" style="opacity:.35"><path id="path2591" d="m 380,180 a 8,8 0 0 0 -8,8 8,8 0 0 0 8,8 8,8 0 0 0 8,-8 8,8 0 0 0 -8,-8 z m -4,7 h 8 v 2 h -8 z" style="fill:url(#linearGradient2228);fill-opacity:1"/></g><g id="menu-checkbox-mixed-disabled" transform="translate(-268,232)" style="opacity:.35"><path id="path2595" d="m 356,180 a 8,8 0 0 0 -8,8 8,8 0 0 0 8,8 8,8 0 0 0 8,-8 8,8 0 0 0 -8,-8 z m -4,7 h 8 v 2 h -8 z" style="fill:url(#linearGradient2230);fill-opacity:1"/></g><g id="checkbox-checked-active" transform="translate(-268,176)"><path id="path2623" d="m 296,150 c -5.52,0 -10,4.48 -10,10 0,5.52 4.48,10 10,10 5.52,0 10,-4.48 10,-10 0,-5.52 -4.48,-10 -10,-10 z m 5.5898,4.5801 L 303,156 l -9,9 -5,-5 1.4102,-1.4102 3.5898,3.5801 z" style="fill:url(#linearGradient2682);fill-opacity:1"/><path id="path2625" d="m 296,150 c -5.52,0 -10,4.48 -10,10 0,5.52 4.48,10 10,10 5.52,0 10,-4.48 10,-10 0,-5.52 -4.48,-10 -10,-10 z m 5.5898,4.5801 L 303,156 l -9,9 -5,-5 1.4102,-1.4102 3.5898,3.5801 z" style="opacity:.15;fill:#000;fill-opacity:1"/><rect style="opacity:0;fill:#000;stroke-width:3;stroke-linecap:round;stroke-linejoin:round;paint-order:stroke fill markers" id="rect2621" width="24" height="24" x="284" y="148" rx="0" ry="0"/></g><g id="radio-checked-active" transform="translate(-268,176)"><path id="path2631" d="m 324,150 c -5.52,0 -10,4.48 -10,10 0,5.52 4.48,10 10,10 5.52,0 10,-4.48 10,-10 0,-5.52 -4.48,-10 -10,-10 z m 0,7 c 1.656,0 3,1.344 3,3 0,1.656 -1.344,3 -3,3 -1.656,0 -3,-1.344 -3,-3 0,-1.656 1.344,-3 3,-3 z" style="fill:url(#linearGradient2684);fill-opacity:1"/><path id="path2633" d="m 324,150 c -5.52,0 -10,4.48 -10,10 0,5.52 4.48,10 10,10 5.52,0 10,-4.48 10,-10 0,-5.52 -4.48,-10 -10,-10 z m 0,7 c 1.656,0 3,1.344 3,3 0,1.656 -1.344,3 -3,3 -1.656,0 -3,-1.344 -3,-3 0,-1.656 1.344,-3 3,-3 z" style="opacity:.15;fill:#000;fill-opacity:1"/><rect style="opacity:0;fill:#000;stroke-width:3;stroke-linecap:round;stroke-linejoin:round;paint-order:stroke fill markers" id="rect2629" width="24" height="24" x="312" y="148" rx="0" ry="0"/></g><g id="checkbox-mixed-hover" transform="translate(-268,232)"><path id="path2661" d="m 296,178 c -5.52,0 -10,4.48 -10,10 0,5.52 4.48,10 10,10 5.52,0 10,-4.48 10,-10 0,-5.52 -4.48,-10 -10,-10 z m -5,9 h 10 v 2 h -10 z" style="fill:url(#linearGradient2686);fill-opacity:1"/><path id="path2691" d="m 296,178 c -5.52,0 -10,4.48 -10,10 0,5.52 4.48,10 10,10 5.52,0 10,-4.48 10,-10 0,-5.52 -4.48,-10 -10,-10 z m -5,9 h 10 v 2 h -10 z" style="opacity:.15;fill:#fff;fill-opacity:1"/><rect style="opacity:0;fill:#000;stroke-width:3;stroke-linecap:round;stroke-linejoin:round;paint-order:stroke fill markers" id="rect2659" width="24" height="24" x="284" y="176" rx="0" ry="0"/></g><g id="radio-mixed-hover" transform="translate(-268,232)"><path id="path2667" d="m 324,178 c -5.52,0 -10,4.48 -10,10 0,5.52 4.48,10 10,10 5.52,0 10,-4.48 10,-10 0,-5.52 -4.48,-10 -10,-10 z m -5,9 h 10 v 2 h -10 z" style="fill:url(#linearGradient2688);fill-opacity:1"/><path id="path2693" d="m 324,178 c -5.52,0 -10,4.48 -10,10 0,5.52 4.48,10 10,10 5.52,0 10,-4.48 10,-10 0,-5.52 -4.48,-10 -10,-10 z m -5,9 h 10 v 2 h -10 z" style="opacity:.15;fill:#fff;fill-opacity:1"/><rect style="opacity:0;fill:#000;stroke-width:3;stroke-linecap:round;stroke-linejoin:round;paint-order:stroke fill markers" id="rect2665" width="24" height="24" x="312" y="176" rx="0" ry="0"/></g><g id="checkbox-mixed-active" transform="translate(-268,260)"><path id="path2677" d="m 296,178 c -5.52,0 -10,4.48 -10,10 0,5.52 4.48,10 10,10 5.52,0 10,-4.48 10,-10 0,-5.52 -4.48,-10 -10,-10 z m -5,9 h 10 v 2 h -10 z" style="fill:url(#linearGradient2690);fill-opacity:1"/><path id="path2731" d="m 296,178 c -5.52,0 -10,4.48 -10,10 0,5.52 4.48,10 10,10 5.52,0 10,-4.48 10,-10 0,-5.52 -4.48,-10 -10,-10 z m -5,9 h 10 v 2 h -10 z" style="opacity:.15;fill:#000;fill-opacity:1"/><rect style="opacity:0;fill:#000;stroke-width:3;stroke-linecap:round;stroke-linejoin:round;paint-order:stroke fill markers" id="rect2675" width="24" height="24" x="284" y="176" rx="0" ry="0"/></g><g id="radio-mixed-active" transform="translate(-268,260)"><path id="path2683" d="m 324,178 c -5.52,0 -10,4.48 -10,10 0,5.52 4.48,10 10,10 5.52,0 10,-4.48 10,-10 0,-5.52 -4.48,-10 -10,-10 z m -5,9 h 10 v 2 h -10 z" style="fill:url(#linearGradient2692);fill-opacity:1"/><path id="path2733" d="m 324,178 c -5.52,0 -10,4.48 -10,10 0,5.52 4.48,10 10,10 5.52,0 10,-4.48 10,-10 0,-5.52 -4.48,-10 -10,-10 z m -5,9 h 10 v 2 h -10 z" style="opacity:.15;fill:#000;fill-opacity:1"/><rect style="opacity:0;fill:#000;stroke-width:3;stroke-linecap:round;stroke-linejoin:round;paint-order:stroke fill markers" id="rect2681" width="24" height="24" x="312" y="176" rx="0" ry="0"/></g><g id="checkbox-checked-disabled" transform="translate(-268,204)" style="opacity:.35"><rect style="opacity:0;fill:#000;stroke-width:3;stroke-linecap:round;stroke-linejoin:round;paint-order:stroke fill markers" id="rect2817" width="24" height="24" x="284" y="148" rx="0" ry="0"/><path id="path2819" d="m 296,150 c -5.52,0 -10,4.48 -10,10 0,5.52 4.48,10 10,10 5.52,0 10,-4.48 10,-10 0,-5.52 -4.48,-10 -10,-10 z m 5.5898,4.5801 L 303,156 l -9,9 -5,-5 1.4102,-1.4102 3.5898,3.5801 z" style="fill:url(#linearGradient1317);fill-opacity:1"/></g><g id="radio-checked-disabled" transform="translate(-268,204)" style="opacity:.35"><rect style="opacity:0;fill:#000;stroke-width:3;stroke-linecap:round;stroke-linejoin:round;paint-order:stroke fill markers" id="rect2823" width="24" height="24" x="312" y="148" rx="0" ry="0"/><path id="path2825" d="m 324,150 c -5.52,0 -10,4.48 -10,10 0,5.52 4.48,10 10,10 5.52,0 10,-4.48 10,-10 0,-5.52 -4.48,-10 -10,-10 z m 0,7 c 1.656,0 3,1.344 3,3 0,1.656 -1.344,3 -3,3 -1.656,0 -3,-1.344 -3,-3 0,-1.656 1.344,-3 3,-3 z" style="fill:url(#linearGradient1319);fill-opacity:1"/></g><g id="checkbox-mixed-disabled" transform="translate(-268,288)" style="opacity:.35"><rect style="opacity:0;fill:#000;stroke-width:3;stroke-linecap:round;stroke-linejoin:round;paint-order:stroke fill markers" id="rect2851" width="24" height="24" x="284" y="176" rx="0" ry="0"/><path id="path2853" d="m 296,178 c -5.52,0 -10,4.48 -10,10 0,5.52 4.48,10 10,10 5.52,0 10,-4.48 10,-10 0,-5.52 -4.48,-10 -10,-10 z m -5,9 h 10 v 2 h -10 z" style="fill:url(#linearGradient1327);fill-opacity:1"/></g><g id="radio-mixed-disabled" transform="translate(-268,288)" style="opacity:.35"><rect style="opacity:0;fill:#000;stroke-width:3;stroke-linecap:round;stroke-linejoin:round;paint-order:stroke fill markers" id="rect2857" width="24" height="24" x="312" y="176" rx="0" ry="0"/><path id="path2859" d="m 324,178 c -5.52,0 -10,4.48 -10,10 0,5.52 4.48,10 10,10 5.52,0 10,-4.48 10,-10 0,-5.52 -4.48,-10 -10,-10 z m -5,9 h 10 v 2 h -10 z" style="fill:url(#linearGradient1329);fill-opacity:1"/></g><g id="entry-active" transform="translate(-268,36)"><rect id="rect2230" width="48" height="28" x="408" y="44" rx="6" ry="6" style="opacity:.05;fill:#fff"/><path id="path2356" style="opacity:1;fill:url(#linearGradient2364);fill-opacity:1" d="m 414,44 c -3.324,0 -6,2.676 -6,6 v 16 c 0,3.324 2.676,6 6,6 h 36 c 3.324,0 6,-2.676 6,-6 V 50 c 0,-3.324 -2.676,-6 -6,-6 z m 0,2 h 36 c 2.216,0 4,1.784 4,4 v 16 c 0,2.216 -1.784,4 -4,4 h -36 c -2.216,0 -4,-1.784 -4,-4 V 50 c 0,-2.216 1.784,-4 4,-4 z"/></g><use id="combo-right-entry-active" width="100%" height="100%" x="0" y="0" clip-path="url(#clipPath6290)" transform="translate(52)" xlink:href="#entry-active"/><use id="combo-left-entry-active" width="100%" height="100%" x="0" y="0" clip-path="url(#clipPath6290)" transform="matrix(-1,0,0,1,380,0)" xlink:href="#entry-active"/><use id="spin-ltr-up-active" width="100%" height="100%" x="0" y="0" clip-path="url(#clipPath6490)" transform="translate(104)" xlink:href="#entry-active"/><use id="spin-rtl-up-active" width="100%" height="100%" x="0" y="0" clip-path="url(#clipPath6490)" transform="matrix(-1,0,0,1,432,0)" xlink:href="#entry-active"/><use id="spin-ltr-down-active" width="100%" height="100%" x="0" y="0" clip-path="url(#clipPath6490)" transform="matrix(1,0,0,-1,104,188)" xlink:href="#entry-active"/><use id="spin-rtl-down-active" width="100%" height="100%" x="0" y="0" clip-path="url(#clipPath6490)" transform="rotate(180,216,94)" xlink:href="#entry-active"/></g></svg>