<svg xmlns="http://www.w3.org/2000/svg" xmlns:svg="http://www.w3.org/2000/svg" xmlns:xlink="http://www.w3.org/1999/xlink" id="svg715" width="340" height="500" version="1.1" viewBox="0 0 340 500"><metadata id="metadata717"/><defs id="defs286"><linearGradient id="color-text"><stop id="stop8" offset="1" stop-color="#000" stop-opacity=".87"/></linearGradient><linearGradient id="color-text-disabled"><stop id="stop11" offset="1" stop-color="#000" stop-opacity=".38"/></linearGradient><linearGradient id="color-text-secondary"><stop id="stop14" offset="1" stop-color="#000" stop-opacity=".6"/></linearGradient><linearGradient id="color-text-secondary-disabled"><stop id="stop17" offset="1" stop-color="#000" stop-opacity=".26"/></linearGradient><linearGradient id="color-track" x1="0" x2="24" y1="0" y2="0" gradientUnits="userSpaceOnUse"><stop id="stop20" offset="1" stop-color="#000" stop-opacity=".26"/></linearGradient><linearGradient id="color-track-disabled" x1="0" x2="24" y1="0" y2="0" gradientUnits="userSpaceOnUse"><stop id="stop23" offset="1" stop-color="#000" stop-opacity=".12"/></linearGradient><linearGradient id="color-divider"><stop id="stop26" offset="1" stop-color="#000" stop-opacity=".12"/></linearGradient><linearGradient id="color-background"><stop id="stop35" offset="1" stop-color="#F2F2F2"/></linearGradient><linearGradient id="color-base"><stop id="stop41" offset="1" stop-color="#FFF"/></linearGradient><linearGradient id="color-base-alt" x1="1" x2="2" y1="0" y2="0" gradientUnits="userSpaceOnUse"><stop id="stop44" offset="1" stop-color="#FAFAFA"/></linearGradient><linearGradient id="color-frame"><stop id="stop47" offset="1" stop-color="#000" stop-opacity=".12"/></linearGradient><rect id="icon-size" width="16" height="16" x="0" y="0" fill="none"/><g id="base-scale-horz-trough"><rect id="rect203" width="24" height="24" x="0" y="0" fill="none"/><rect id="rect205" width="12" height="2" x="6" y="11"/></g><g id="base-scale-vert-trough"><use id="use208" width="100%" height="100%" x="0" y="0" transform="rotate(90,12,12)" xlink:href="#base-scale-horz-trough"/></g><g id="base-scrollbar-horz-slider"><rect id="rect211" width="17" height="17" x="0" y="-1" fill="none"/><rect id="rect213" width="9" height="8" x="4" y="4" rx="4"/></g><g id="base-scrollbar-horz-trough"><rect id="rect216" width="1" height="2" x="0" y="-1" fill="url(#color-base)"/><rect id="rect218" width="1" height="1" x="0" y="-1" fill="url(#color-divider)"/></g><g id="base-scrollbar-vert-ltr-slider"><use id="use221" width="100%" height="100%" x="0" y="0" transform="rotate(-90,8.5,8.5)" xlink:href="#base-scrollbar-horz-slider"/></g><g id="base-scrollbar-vert-ltr-trough"><use id="use224" width="100%" height="100%" x="0" y="0" transform="rotate(-90,0.5,0.5)" xlink:href="#base-scrollbar-horz-trough"/></g><g id="base-scrollbar-vert-rtl-slider"><use id="use227" width="100%" height="100%" x="0" y="0" transform="rotate(90,8,8)" xlink:href="#base-scrollbar-horz-slider"/></g><g id="base-scrollbar-vert-rtl-trough"><use id="use230" width="100%" height="100%" x="0" y="0" transform="rotate(90,0.5,0.5)" xlink:href="#base-scrollbar-horz-trough"/></g><g id="base-handle-horz"><circle id="circle233" cx="2" cy="2" r="2"/><circle id="circle235" cx="8" cy="2" r="2"/><circle id="circle237" cx="14" cy="2" r="2"/></g><g id="base-handle-vert"><use id="use240" width="100%" height="100%" x="0" y="0" transform="rotate(90,2,2)" xlink:href="#base-handle-horz"/></g><path id="pan-path" d="M 13,6 8,11 3,6 Z"/><g id="base-pan-down"><use id="use244" width="100%" height="100%" x="0" y="0" xlink:href="#icon-size"/><use id="use246" width="100%" height="100%" x="0" y="0" xlink:href="#pan-path"/></g><g id="base-pan-up"><use id="use249" width="100%" height="100%" x="0" y="0" xlink:href="#icon-size"/><use id="use251" width="100%" height="100%" x="0" y="0" transform="rotate(180,8,8)" xlink:href="#pan-path"/></g><g id="base-pan-left"><use id="use254" width="100%" height="100%" x="0" y="0" xlink:href="#icon-size"/><use id="use256" width="100%" height="100%" x="0" y="0" transform="rotate(90,8,8)" xlink:href="#pan-path"/></g><g id="base-pan-right"><use id="use259" width="100%" height="100%" x="0" y="0" xlink:href="#icon-size"/><use id="use261" width="100%" height="100%" x="0" y="0" transform="rotate(-90,8,8)" xlink:href="#pan-path"/></g><g id="base-pan-left-semi"><use id="use264" width="100%" height="100%" x="0" y="0" xlink:href="#icon-size"/><use id="use266" width="100%" height="100%" x="0" y="0" transform="rotate(45,8,8)" xlink:href="#pan-path"/></g><g id="base-pan-right-semi"><use id="use269" width="100%" height="100%" x="0" y="0" xlink:href="#icon-size"/><use id="use271" width="100%" height="100%" x="0" y="0" transform="rotate(-45,8,8)" xlink:href="#pan-path"/></g><g id="base-treeview-ltr-button"><rect id="rect274" width="2" height="2" x="0" y="0" fill="url(#color-base)" fill-opacity="1"/><rect id="rect276" width="2" height="2" x="0" y="0" fill="url(#color-divider)" fill-opacity="1"/><rect id="rect278" width="1" height="1" x="0" y="0" fill="url(#color-base)" fill-opacity="1"/><rect id="rect280" width="1" height="1" x="0" y="0"/></g><g id="base-treeview-rtl-button"><use id="use283" width="100%" height="100%" x="0" y="0" transform="scale(-1,1)" xlink:href="#base-treeview-ltr-button"/></g><clipPath id="clipPath2990" clipPathUnits="userSpaceOnUse"><rect style="opacity:.03;fill:#000;stroke-width:2;stroke-linecap:round;stroke-linejoin:round;paint-order:stroke fill markers" id="rect2992" width="36" height="132" x="432" y="48" rx="0" ry="0"/></clipPath><clipPath id="clipPath2996" clipPathUnits="userSpaceOnUse"><rect style="opacity:.03;fill:#000;stroke-width:2;stroke-linecap:round;stroke-linejoin:round;paint-order:stroke fill markers" id="rect2998" width="36" height="132" x="432" y="48" rx="0" ry="0"/></clipPath><clipPath id="clipPath3002" clipPathUnits="userSpaceOnUse"><rect style="opacity:.03;fill:#000;stroke-width:2;stroke-linecap:round;stroke-linejoin:round;paint-order:stroke fill markers" id="rect3004" width="36" height="132" x="432" y="48" rx="0" ry="0"/></clipPath><clipPath id="clipPath3037" clipPathUnits="userSpaceOnUse"><rect style="opacity:.03;fill:#000;stroke-width:2;stroke-linecap:round;stroke-linejoin:round;paint-order:stroke fill markers" id="rect3039" width="36" height="132" x="432" y="48" rx="0" ry="0"/></clipPath><clipPath id="clipPath3276" clipPathUnits="userSpaceOnUse"><rect style="opacity:.03;fill:#000;stroke-width:1.05131;stroke-linecap:round;stroke-linejoin:round;paint-order:stroke fill markers" id="rect3278" width="28" height="18" x="432" y="72" rx="0" ry="0"/></clipPath><clipPath id="clipPath3280" clipPathUnits="userSpaceOnUse"><rect style="opacity:.03;fill:#000;stroke-width:1.05131;stroke-linecap:round;stroke-linejoin:round;paint-order:stroke fill markers" id="rect3282" width="28" height="18" x="432" y="40" rx="0" ry="0"/></clipPath><clipPath id="clipPath3284" clipPathUnits="userSpaceOnUse"><rect style="opacity:.03;fill:#000;stroke-width:1.05131;stroke-linecap:round;stroke-linejoin:round;paint-order:stroke fill markers" id="rect3286" width="28" height="18" x="432" y="8" rx="0" ry="0"/></clipPath><clipPath id="clipPath3288" clipPathUnits="userSpaceOnUse"><rect style="opacity:.03;fill:#000;stroke-width:1.05131;stroke-linecap:round;stroke-linejoin:round;paint-order:stroke fill markers" id="rect3290" width="28" height="18" x="432" y="-24" rx="0" ry="0"/></clipPath><linearGradient id="linearGradient2272" x1="6" x2="18" y1="6" y2="6" gradientUnits="userSpaceOnUse" xlink:href="#color-background"/><linearGradient id="linearGradient2274" x1="6" x2="18" y1="6" y2="6" gradientUnits="userSpaceOnUse" xlink:href="#color-text-secondary-disabled"/><linearGradient id="linearGradient2280" x1="0" x2="17" y1="-1" y2="-1" gradientUnits="userSpaceOnUse" xlink:href="#color-text-disabled"/><linearGradient id="linearGradient2282" x1="0" x2="17" y1="-1" y2="-1" gradientUnits="userSpaceOnUse" xlink:href="#color-text-secondary"/><linearGradient id="linearGradient2284" x1="0" x2="17" y1="-1" y2="-1" gradientUnits="userSpaceOnUse" xlink:href="#color-text"/><linearGradient id="linearGradient2286" x1="0" x2="17" y1="-1" y2="-1" gradientUnits="userSpaceOnUse" xlink:href="#color-text-secondary-disabled"/><linearGradient id="linearGradient2288" x1="-1" x2="16" y1="0" y2="0" gradientUnits="userSpaceOnUse" xlink:href="#color-text-disabled"/><linearGradient id="linearGradient2290" x1="-1" x2="16" y1="0" y2="0" gradientUnits="userSpaceOnUse" xlink:href="#color-text-secondary"/><linearGradient id="linearGradient2292" x1="-1" x2="16" y1="0" y2="0" gradientUnits="userSpaceOnUse" xlink:href="#color-text"/><linearGradient id="linearGradient2294" x1="-1" x2="16" y1="0" y2="0" gradientUnits="userSpaceOnUse" xlink:href="#color-text-secondary-disabled"/><linearGradient id="linearGradient2296" x1="0" x2="17" y1="0" y2="0" gradientUnits="userSpaceOnUse" xlink:href="#color-text-disabled"/><linearGradient id="linearGradient2298" x1="0" x2="17" y1="0" y2="0" gradientUnits="userSpaceOnUse" xlink:href="#color-text-secondary"/><linearGradient id="linearGradient2300" x1="0" x2="17" y1="0" y2="0" gradientUnits="userSpaceOnUse" xlink:href="#color-text"/><linearGradient id="linearGradient2302" x1="0" x2="17" y1="0" y2="0" gradientUnits="userSpaceOnUse" xlink:href="#color-text-secondary-disabled"/><linearGradient id="linearGradient2304" x1="0" x2="8" y1="0" y2="0" gradientTransform="scale(2,0.5)" gradientUnits="userSpaceOnUse" xlink:href="#color-text-disabled"/><linearGradient id="linearGradient2306" x1="0" x2="8" y1="0" y2="0" gradientTransform="scale(2,0.5)" gradientUnits="userSpaceOnUse" xlink:href="#color-text-secondary"/><linearGradient id="linearGradient2308" x1="0" x2="8" y1="0" y2="0" gradientTransform="scale(2,0.5)" gradientUnits="userSpaceOnUse" xlink:href="#color-text"/><linearGradient id="linearGradient2310" x1="0" x2="8" y1="0" y2="0" gradientTransform="scale(0.5,2)" gradientUnits="userSpaceOnUse" xlink:href="#color-text-disabled"/><linearGradient id="linearGradient2312" x1="0" x2="8" y1="0" y2="0" gradientTransform="scale(0.5,2)" gradientUnits="userSpaceOnUse" xlink:href="#color-text-secondary"/><linearGradient id="linearGradient2314" x1="0" x2="8" y1="0" y2="0" gradientTransform="scale(0.5,2)" gradientUnits="userSpaceOnUse" xlink:href="#color-text"/><linearGradient id="linearGradient2316" x1="0" x2="16" y1="0" y2="0" gradientUnits="userSpaceOnUse" xlink:href="#color-text"/><linearGradient id="linearGradient2318" x1="0" x2="16" y1="0" y2="0" gradientUnits="userSpaceOnUse" xlink:href="#color-text-disabled"/><linearGradient id="linearGradient2320" x1="0" x2="16" y1="0" y2="0" gradientUnits="userSpaceOnUse" xlink:href="#color-text-secondary"/><linearGradient id="linearGradient2322" x1="0" x2="16" y1="0" y2="0" gradientUnits="userSpaceOnUse" xlink:href="#color-text-secondary-disabled"/><linearGradient id="linearGradient2324" x1="0" x2="16" y1="0" y2="0" gradientUnits="userSpaceOnUse" xlink:href="#color-text"/><linearGradient id="linearGradient2326" x1="0" x2="16" y1="0" y2="0" gradientUnits="userSpaceOnUse" xlink:href="#color-text-disabled"/><linearGradient id="linearGradient2328" x1="0" x2="16" y1="0" y2="0" gradientUnits="userSpaceOnUse" xlink:href="#color-text-secondary"/><linearGradient id="linearGradient2330" x1="0" x2="16" y1="0" y2="0" gradientUnits="userSpaceOnUse" xlink:href="#color-text-secondary-disabled"/><linearGradient id="linearGradient2332" x1="0" x2="16" y1="0" y2="0" gradientUnits="userSpaceOnUse" xlink:href="#color-text"/><linearGradient id="linearGradient2334" x1="0" x2="16" y1="0" y2="0" gradientUnits="userSpaceOnUse" xlink:href="#color-text-disabled"/><linearGradient id="linearGradient2336" x1="0" x2="16" y1="0" y2="0" gradientUnits="userSpaceOnUse" xlink:href="#color-text-secondary"/><linearGradient id="linearGradient2338" x1="0" x2="16" y1="0" y2="0" gradientUnits="userSpaceOnUse" xlink:href="#color-text-secondary-disabled"/><linearGradient id="linearGradient2340" x1="0" x2="16" y1="0" y2="0" gradientUnits="userSpaceOnUse" xlink:href="#color-text"/><linearGradient id="linearGradient2342" x1="0" x2="16" y1="0" y2="0" gradientUnits="userSpaceOnUse" xlink:href="#color-text-disabled"/><linearGradient id="linearGradient2344" x1="0" x2="16" y1="0" y2="0" gradientUnits="userSpaceOnUse" xlink:href="#color-text-secondary"/><linearGradient id="linearGradient2346" x1="0" x2="16" y1="0" y2="0" gradientUnits="userSpaceOnUse" xlink:href="#color-text-secondary-disabled"/><linearGradient id="linearGradient2348" x1="0" x2="16" y1="0" y2="0" gradientUnits="userSpaceOnUse" xlink:href="#color-text"/><linearGradient id="linearGradient2350" x1="0" x2="16" y1="0" y2="0" gradientUnits="userSpaceOnUse" xlink:href="#color-text"/><linearGradient id="linearGradient2352" x1="0" x2="1" y1="0" y2="0" gradientUnits="userSpaceOnUse" xlink:href="#color-divider"/><linearGradient id="linearGradient2358" x1="0" x2="4" y1="0" y2="0" gradientUnits="userSpaceOnUse" xlink:href="#color-background"/><linearGradient id="linearGradient2360" x1="0" x2="24" y1="0" y2="0" gradientUnits="userSpaceOnUse" xlink:href="#color-track-disabled"/><linearGradient id="linearGradient2362" x1="0" x2="3" y1="0" y2="0" gradientUnits="userSpaceOnUse" xlink:href="#color-frame"/><linearGradient id="linearGradient2365" x1="0" x2="3" y1="0" y2="0" gradientUnits="userSpaceOnUse" xlink:href="#color-frame"/><linearGradient id="linearGradient2367" x1="1" x2="2" y1="1" y2="1" gradientUnits="userSpaceOnUse" xlink:href="#color-base"/><linearGradient id="linearGradient2369" x1="0" x2="2.449" y1="0" y2="0" gradientTransform="scale(1.2247449,0.81649658)" gradientUnits="userSpaceOnUse" xlink:href="#color-frame"/><linearGradient id="linearGradient2371" x1="0" x2="10" y1="0" y2="0" gradientUnits="userSpaceOnUse" xlink:href="#color-divider"/><linearGradient id="linearGradient2373" x1="0" x2="2" y1="0" y2="0" gradientUnits="userSpaceOnUse" xlink:href="#color-text"/><linearGradient id="linearGradient2375" x1="0" x2="2" y1="0" y2="0" gradientUnits="userSpaceOnUse" xlink:href="#color-text"/><linearGradient id="linearGradient2377" x1="0" x2="2" y1="0" y2="0" gradientUnits="userSpaceOnUse" xlink:href="#color-text"/><linearGradient id="linearGradient2379" x1="-2" x2="0" y1="0" y2="0" gradientUnits="userSpaceOnUse" xlink:href="#color-text"/><linearGradient id="linearGradient2381" x1="-2" x2="0" y1="0" y2="0" gradientUnits="userSpaceOnUse" xlink:href="#color-text"/><linearGradient id="linearGradient2383" x1="-2" x2="0" y1="0" y2="0" gradientUnits="userSpaceOnUse" xlink:href="#color-text"/><clipPath id="clipPath6274" clipPathUnits="userSpaceOnUse"><rect style="opacity:.35;fill:#000;stroke-width:2;stroke-linecap:round;stroke-linejoin:round;paint-order:stroke fill markers" id="rect6276" width="28" height="132" x="164" y="12" rx="0" ry="0"/></clipPath><clipPath id="clipPath6286" clipPathUnits="userSpaceOnUse"><rect style="opacity:.35;fill:#000;stroke-width:2;stroke-linecap:round;stroke-linejoin:round;paint-order:stroke fill markers" id="rect6288" width="28" height="132" x="164" y="12" rx="0" ry="0"/></clipPath><clipPath id="clipPath6323" clipPathUnits="userSpaceOnUse"><rect style="opacity:.35;fill:#000;stroke-width:2;stroke-linecap:round;stroke-linejoin:round;paint-order:stroke fill markers" id="rect6325" width="28" height="132" x="164" y="12" rx="0" ry="0"/></clipPath><clipPath id="clipPath6482" clipPathUnits="userSpaceOnUse"><rect style="opacity:.35;fill:#000;stroke-width:2;stroke-linecap:round;stroke-linejoin:round;paint-order:stroke fill markers" id="rect6484" width="26" height="16" x="164" y="14" rx="0" ry="0"/></clipPath><clipPath id="clipPath6486" clipPathUnits="userSpaceOnUse"><rect style="opacity:.35;fill:#000;stroke-width:2;stroke-linecap:round;stroke-linejoin:round;paint-order:stroke fill markers" id="rect6488" width="26" height="16" x="164" y="46" rx="0" ry="0"/></clipPath><clipPath id="clipPath6494" clipPathUnits="userSpaceOnUse"><rect style="opacity:.35;fill:#000;stroke-width:2;stroke-linecap:round;stroke-linejoin:round;paint-order:stroke fill markers" id="rect6496" width="26" height="16" x="164" y="110" rx="0" ry="0"/></clipPath></defs><use id="use2857" width="100%" height="100%" x="0" y="0" clip-path="url(#clipPath2990)" transform="translate(278,-16)" xlink:href="#g2474"/><use id="use2859" width="100%" height="100%" x="0" y="0" clip-path="url(#clipPath3037)" transform="translate(278,-16)" xlink:href="#g2463"/><use id="use2861" width="100%" height="100%" x="0" y="0" clip-path="url(#clipPath2996)" transform="translate(278,-16)" xlink:href="#g2471"/><use id="use2863" width="100%" height="100%" x="0" y="0" clip-path="url(#clipPath3002)" transform="translate(278,-16)" xlink:href="#g2467"/><use id="use3121" width="100%" height="100%" x="0" y="0" clip-path="url(#clipPath3288)" transform="translate(330,-16)" xlink:href="#g2474"/><use id="use3123" width="100%" height="100%" x="0" y="0" clip-path="url(#clipPath3276)" transform="translate(330,-16)" xlink:href="#g2463"/><use id="use3125" width="100%" height="100%" x="0" y="0" clip-path="url(#clipPath3284)" transform="translate(330,-16)" xlink:href="#g2471"/><use id="use3127" width="100%" height="100%" x="0" y="0" clip-path="url(#clipPath3280)" transform="translate(330,-16)" xlink:href="#g2467"/><use id="use3129" width="100%" height="100%" x="0" y="0" clip-path="url(#clipPath2990)" transform="matrix(-1,0,0,1,606,-16)" xlink:href="#g2474"/><use id="use3131" width="100%" height="100%" x="0" y="0" clip-path="url(#clipPath3037)" transform="matrix(-1,0,0,1,606,-16)" xlink:href="#g2463"/><use id="use3133" width="100%" height="100%" x="0" y="0" clip-path="url(#clipPath2996)" transform="matrix(-1,0,0,1,606,-16)" xlink:href="#g2471"/><use id="use3135" width="100%" height="100%" x="0" y="0" clip-path="url(#clipPath3002)" transform="matrix(-1,0,0,1,606,-16)" xlink:href="#g2467"/><use id="use3292" width="100%" height="100%" x="0" y="0" clip-path="url(#clipPath3288)" transform="matrix(1,0,0,-1,330,44)" xlink:href="#g2474"/><use id="use3294" width="100%" height="100%" x="0" y="0" clip-path="url(#clipPath3288)" transform="matrix(-1,0,0,1,658,-16)" xlink:href="#g2474"/><use id="use3296" width="100%" height="100%" x="0" y="0" clip-path="url(#clipPath3288)" transform="rotate(180,329,22)" xlink:href="#g2474"/><use id="use3298" width="100%" height="100%" x="0" y="0" clip-path="url(#clipPath3284)" transform="matrix(1,0,0,-1,330,108)" xlink:href="#g2471"/><use id="use3300" width="100%" height="100%" x="0" y="0" clip-path="url(#clipPath3284)" transform="matrix(-1,0,0,1,658,-16)" xlink:href="#g2471"/><use id="use3302" width="100%" height="100%" x="0" y="0" clip-path="url(#clipPath3284)" transform="rotate(180,329,54)" xlink:href="#g2471"/><use id="use3304" width="100%" height="100%" x="0" y="0" clip-path="url(#clipPath3280)" transform="matrix(1,0,0,-1,330,172)" xlink:href="#g2467"/><use id="use3306" width="100%" height="100%" x="0" y="0" clip-path="url(#clipPath3280)" transform="matrix(-1,0,0,1,658,-16)" xlink:href="#g2467"/><use id="use3308" width="100%" height="100%" x="0" y="0" clip-path="url(#clipPath3280)" transform="rotate(180,329,86)" xlink:href="#g2467"/><use id="use3310" width="100%" height="100%" x="0" y="0" clip-path="url(#clipPath3276)" transform="matrix(1,0,0,-1,330,236)" xlink:href="#g2463"/><use id="use3312" width="100%" height="100%" x="0" y="0" clip-path="url(#clipPath3276)" transform="matrix(-1,0,0,1,658,-16)" xlink:href="#g2463"/><use id="use3314" width="100%" height="100%" x="0" y="0" clip-path="url(#clipPath3276)" transform="rotate(180,329,118)" xlink:href="#g2463"/><g id="layer2"><rect style="fill:#f2f2f2;stroke-width:2.09717;stroke-linecap:round;stroke-linejoin:round;paint-order:stroke fill markers" id="rect1648" width="340" height="500" x="0" y="0" rx="0" ry="0"/></g><g id="layer1"><g id="scale-slider-disabled" transform="translate(140,340)"><circle id="circle525" cx="12" cy="12" r="12" fill="none"/><circle id="circle527" cx="12" cy="12" r="6" fill="url(#color-background)" style="fill:url(#linearGradient2272)"/><circle id="circle529" cx="12" cy="12" r="6" fill="url(#color-text-secondary-disabled)" style="fill:url(#linearGradient2274)"/></g><g id="scale-horz-trough" transform="translate(172,244)"><use id="use532" width="100%" height="100%" x="0" y="0" fill="url(#color-track)" xlink:href="#base-scale-horz-trough" style="fill:url(#color-track)"/></g><g id="scale-horz-trough-disabled" transform="translate(172,340)"><use id="use538" width="100%" height="100%" x="0" y="0" fill="url(#color-track-disabled)" xlink:href="#base-scale-horz-trough" style="fill:url(#color-track-disabled)"/></g><g id="scale-vert-trough" transform="translate(204,244)"><use id="use541" width="100%" height="100%" x="0" y="0" fill="url(#color-track)" xlink:href="#base-scale-vert-trough" style="fill:url(#color-track)"/></g><g id="scale-vert-trough-disabled" transform="translate(204,340)"><use id="use547" width="100%" height="100%" x="0" y="0" fill="url(#color-track-disabled)" xlink:href="#base-scale-vert-trough" style="fill:url(#color-track-disabled)"/></g><g id="scrollbar-horz-slider" transform="translate(236,244)"><use id="use550" width="100%" height="100%" x="0" y="0" fill="url(#color-text-disabled)" xlink:href="#base-scrollbar-horz-slider" style="fill:url(#linearGradient2280)"/></g><g id="scrollbar-horz-slider-hover" transform="translate(236,268)"><use id="use553" width="100%" height="100%" x="0" y="0" fill="url(#color-text-secondary)" xlink:href="#base-scrollbar-horz-slider" style="fill:url(#linearGradient2282)"/></g><g id="scrollbar-horz-slider-active" transform="translate(236,292)"><use id="use556" width="100%" height="100%" x="0" y="0" fill="url(#color-text)" xlink:href="#base-scrollbar-horz-slider" style="fill:url(#linearGradient2284)"/></g><g id="scrollbar-horz-slider-disabled" transform="translate(236,316)"><use id="use559" width="100%" height="100%" x="0" y="0" fill="url(#color-text-secondary-disabled)" xlink:href="#base-scrollbar-horz-slider" style="fill:url(#linearGradient2286)"/></g><g id="scrollbar-horz-trough" transform="translate(236,340)"><use id="use562" width="100%" height="100%" x="0" y="0" xlink:href="#base-scrollbar-horz-trough"/></g><g id="scrollbar-vert-ltr-slider" transform="translate(260,244)"><use id="use565" width="100%" height="100%" x="0" y="0" fill="url(#color-text-disabled)" xlink:href="#base-scrollbar-vert-ltr-slider" style="fill:url(#linearGradient2288)"/></g><g id="scrollbar-vert-ltr-slider-hover" transform="translate(260,268)"><use id="use568" width="100%" height="100%" x="0" y="0" fill="url(#color-text-secondary)" xlink:href="#base-scrollbar-vert-ltr-slider" style="fill:url(#linearGradient2290)"/></g><g id="scrollbar-vert-ltr-slider-active" transform="translate(260,292)"><use id="use571" width="100%" height="100%" x="0" y="0" fill="url(#color-text)" xlink:href="#base-scrollbar-vert-ltr-slider" style="fill:url(#linearGradient2292)"/></g><g id="scrollbar-vert-ltr-slider-disabled" transform="translate(260,316)"><use id="use574" width="100%" height="100%" x="0" y="0" fill="url(#color-text-secondary-disabled)" xlink:href="#base-scrollbar-vert-ltr-slider" style="fill:url(#linearGradient2294)"/></g><g id="scrollbar-vert-ltr-trough" transform="translate(260,340)"><use id="use577" width="100%" height="100%" x="0" y="0" xlink:href="#base-scrollbar-vert-ltr-trough"/></g><g id="scrollbar-vert-rtl-slider" transform="translate(284,244)"><use id="use580" width="100%" height="100%" x="0" y="0" fill="url(#color-text-disabled)" xlink:href="#base-scrollbar-vert-rtl-slider" style="fill:url(#linearGradient2296)"/></g><g id="scrollbar-vert-rtl-slider-hover" transform="translate(284,268)"><use id="use583" width="100%" height="100%" x="0" y="0" fill="url(#color-text-secondary)" xlink:href="#base-scrollbar-vert-rtl-slider" style="fill:url(#linearGradient2298)"/></g><g id="scrollbar-vert-rtl-slider-active" transform="translate(284,292)"><use id="use586" width="100%" height="100%" x="0" y="0" fill="url(#color-text)" xlink:href="#base-scrollbar-vert-rtl-slider" style="fill:url(#linearGradient2300)"/></g><g id="scrollbar-vert-rtl-slider-disabled" transform="translate(284,316)"><use id="use589" width="100%" height="100%" x="0" y="0" fill="url(#color-text-secondary-disabled)" xlink:href="#base-scrollbar-vert-rtl-slider" style="fill:url(#linearGradient2302)"/></g><g id="scrollbar-vert-rtl-trough" transform="translate(284,340)"><use id="use592" width="100%" height="100%" x="0" y="0" xlink:href="#base-scrollbar-vert-rtl-trough"/></g><g id="handle-horz" transform="translate(308,268)"><use id="use595" width="100%" height="100%" x="0" y="0" fill="url(#color-text-disabled)" xlink:href="#base-handle-horz" style="fill:url(#linearGradient2304)"/></g><g id="handle-horz-hover" transform="translate(308,304)"><use id="use598" width="100%" height="100%" x="0" y="0" fill="url(#color-text-secondary)" xlink:href="#base-handle-horz" style="fill:url(#linearGradient2306)"/></g><g id="handle-horz-active" transform="translate(308,340)"><use id="use601" width="100%" height="100%" x="0" y="0" fill="url(#color-text)" xlink:href="#base-handle-horz" style="fill:url(#linearGradient2308)"/></g><g id="handle-vert" transform="translate(308,244)"><use id="use604" width="100%" height="100%" x="0" y="0" fill="url(#color-text-disabled)" xlink:href="#base-handle-vert" style="fill:url(#linearGradient2310)"/></g><g id="handle-vert-hover" transform="translate(308,280)"><use id="use607" width="100%" height="100%" x="0" y="0" fill="url(#color-text-secondary)" xlink:href="#base-handle-vert" style="fill:url(#linearGradient2312)"/></g><g id="handle-vert-active" transform="translate(308,316)"><use id="use610" width="100%" height="100%" x="0" y="0" fill="url(#color-text)" xlink:href="#base-handle-vert" style="fill:url(#linearGradient2314)"/></g><g id="pan-up" transform="translate(141,151)"><use id="use613" width="100%" height="100%" x="0" y="0" fill="url(#color-text)" xlink:href="#base-pan-up" style="fill:url(#linearGradient2316)"/></g><g id="pan-up-disabled" transform="translate(141,171)"><use id="use616" width="100%" height="100%" x="0" y="0" fill="url(#color-text-disabled)" xlink:href="#base-pan-up" style="fill:url(#linearGradient2318)"/></g><g id="pan-up-alt" transform="translate(141,191)"><use id="use619" width="100%" height="100%" x="0" y="0" fill="url(#color-text-secondary)" xlink:href="#base-pan-up" style="fill:url(#linearGradient2320)"/></g><g id="pan-up-alt-disabled" transform="translate(141,211)"><use id="use622" width="100%" height="100%" x="0" y="0" fill="url(#color-text-secondary-disabled)" xlink:href="#base-pan-up" style="fill:url(#linearGradient2322)"/></g><g id="pan-down" transform="translate(161,151)"><use id="use625" width="100%" height="100%" x="0" y="0" fill="url(#color-text)" xlink:href="#base-pan-down" style="fill:url(#linearGradient2324)"/></g><g id="pan-down-disabled" transform="translate(161,171)"><use id="use628" width="100%" height="100%" x="0" y="0" fill="url(#color-text-disabled)" xlink:href="#base-pan-down" style="fill:url(#linearGradient2326)"/></g><g id="pan-down-alt" transform="translate(161,191)"><use id="use631" width="100%" height="100%" x="0" y="0" fill="url(#color-text-secondary)" xlink:href="#base-pan-down" style="fill:url(#linearGradient2328)"/></g><g id="pan-down-alt-disabled" transform="translate(161,211)"><use id="use634" width="100%" height="100%" x="0" y="0" fill="url(#color-text-secondary-disabled)" xlink:href="#base-pan-down" style="fill:url(#linearGradient2330)"/></g><g id="pan-left" transform="translate(181,151)"><use id="use637" width="100%" height="100%" x="0" y="0" fill="url(#color-text)" xlink:href="#base-pan-left" style="fill:url(#linearGradient2332)"/></g><g id="pan-left-disabled" transform="translate(181,171)"><use id="use640" width="100%" height="100%" x="0" y="0" fill="url(#color-text-disabled)" xlink:href="#base-pan-left" style="fill:url(#linearGradient2334)"/></g><g id="pan-left-alt" transform="translate(181,191)"><use id="use643" width="100%" height="100%" x="0" y="0" fill="url(#color-text-secondary)" xlink:href="#base-pan-left" style="fill:url(#linearGradient2336)"/></g><g id="pan-left-alt-disabled" transform="translate(181,211)"><use id="use646" width="100%" height="100%" x="0" y="0" fill="url(#color-text-secondary-disabled)" xlink:href="#base-pan-left" style="fill:url(#linearGradient2338)"/></g><g id="pan-right" transform="translate(201,151)"><use id="use649" width="100%" height="100%" x="0" y="0" fill="url(#color-text)" xlink:href="#base-pan-right" style="fill:url(#linearGradient2340)"/></g><g id="pan-right-disabled" transform="translate(201,171)"><use id="use652" width="100%" height="100%" x="0" y="0" fill="url(#color-text-disabled)" xlink:href="#base-pan-right" style="fill:url(#linearGradient2342)"/></g><g id="pan-right-alt" transform="translate(201,191)"><use id="use655" width="100%" height="100%" x="0" y="0" fill="url(#color-text-secondary)" xlink:href="#base-pan-right" style="fill:url(#linearGradient2344)"/></g><g id="pan-right-alt-disabled" transform="translate(201,211)"><use id="use658" width="100%" height="100%" x="0" y="0" fill="url(#color-text-secondary-disabled)" xlink:href="#base-pan-right" style="fill:url(#linearGradient2346)"/></g><g id="pan-left-semi" transform="translate(221,151)"><use id="use661" width="100%" height="100%" x="0" y="0" fill="url(#color-text)" xlink:href="#base-pan-left-semi" style="fill:url(#linearGradient2348)"/></g><g id="pan-right-semi" transform="translate(241,151)"><use id="use664" width="100%" height="100%" x="0" y="0" fill="url(#color-text)" xlink:href="#base-pan-right-semi" style="fill:url(#linearGradient2350)"/></g><g id="border" transform="translate(140,388)"><rect id="rect667" width="1" height="1" y="0" fill="url(#color-divider)" style="fill:url(#linearGradient2352)" x="0"/></g><g id="progressbar-trough" transform="translate(176,388)"><rect id="rect676" width="4" height="4" y="0" fill="url(#color-background)" style="fill:url(#linearGradient2358)" x="0"/><rect id="rect678" width="4" height="4" y="0" fill="url(#color-track-disabled)" style="fill:url(#linearGradient2360)" x="0"/></g><g id="frame" transform="translate(140,400)"><rect id="rect681" width="2" height="2" x=".5" y=".5" fill="none" stroke="url(#color-frame)" stroke-width="1" style="stroke:url(#linearGradient2362)"/></g><g id="frame-notebook" transform="translate(152,400)"><rect id="rect684" width="3" height="3" y="0" fill="url(#color-frame)" style="fill:url(#linearGradient2365)" x="0"/><rect id="rect686" width="1" height="1" x="1" y="1" fill="url(#color-base)" style="fill:url(#linearGradient2367)"/></g><g id="frame-inline" transform="translate(164,400)"><rect id="rect689" width="3" height="2" y="0" fill="url(#color-frame)" style="fill:url(#linearGradient2369)" x="0"/><rect id="rect691" width="1" height="1" x="1" fill="url(#color-base-alt)" style="fill:url(#color-base-alt)" y="0"/></g><g id="focus" transform="translate(176,400)"><rect id="rect694" width="8" height="8" x="1" y="1" fill="none" stroke="url(#color-divider)" stroke-width="2" rx="3" style="stroke:url(#linearGradient2371)"/></g><g id="treeview-ltr-button" transform="translate(188,388)"><use id="use697" width="100%" height="100%" x="0" y="0" fill="url(#color-text)" fill-opacity="0" xlink:href="#base-treeview-ltr-button" style="fill:url(#linearGradient2373)"/></g><g id="treeview-ltr-button-hover" transform="translate(188,396)"><use id="use700" width="100%" height="100%" x="0" y="0" fill="url(#color-text)" fill-opacity=".08" xlink:href="#base-treeview-ltr-button" style="fill:url(#linearGradient2375)"/></g><g id="treeview-ltr-button-active" transform="translate(188,404)"><use id="use703" width="100%" height="100%" x="0" y="0" fill="url(#color-text)" fill-opacity=".2" xlink:href="#base-treeview-ltr-button" style="fill:url(#linearGradient2377)"/></g><g id="treeview-rtl-button" transform="translate(198,388)"><use id="use706" width="100%" height="100%" x="0" y="0" fill="url(#color-text)" fill-opacity="0" xlink:href="#base-treeview-rtl-button" style="fill:url(#linearGradient2379)"/></g><g id="treeview-rtl-button-hover" transform="translate(198,396)"><use id="use709" width="100%" height="100%" x="0" y="0" fill="url(#color-text)" fill-opacity=".08" xlink:href="#base-treeview-rtl-button" style="fill:url(#linearGradient2381)"/></g><g id="treeview-rtl-button-active" transform="translate(198,404)"><use id="use712" width="100%" height="100%" x="0" y="0" fill="url(#color-text)" fill-opacity=".2" xlink:href="#base-treeview-rtl-button" style="fill:url(#linearGradient2383)"/></g><g id="flat-button" transform="translate(-268,36)"><rect id="rect1641" width="48" height="28" x="284" y="-20" rx="6" ry="6" style="opacity:.01;fill:#000"/></g><g id="flat-button-hover" transform="translate(-268,36)"><rect id="rect1902" width="48" height="28" x="284" y="12" rx="6" ry="6" style="opacity:.1;fill:#000"/></g><g id="flat-button-active" transform="translate(-268,36)"><rect id="rect1904" width="48" height="28" x="284" y="44" rx="6" ry="6" style="opacity:.2;fill:#000"/></g><g id="flat-button-disabled" transform="translate(-268,36)"><rect id="rect1906" width="48" height="28" x="284" y="76" rx="6" ry="6" style="opacity:.01;fill:#000"/></g><g id="button" transform="translate(-268,36)"><rect id="rect1908" width="48" height="28" x="336" y="-20" rx="6" ry="6" style="opacity:.05;fill:#000"/></g><g id="button-hover" transform="translate(-268,36)"><rect id="rect1910" width="48" height="28" x="336" y="12" rx="6" ry="6" style="opacity:.1;fill:#000"/></g><g id="button-active" transform="translate(-268,36)"><rect id="rect1912" width="48" height="28" x="336" y="44" rx="6" ry="6" style="opacity:.2;fill:#000"/></g><g id="button-disabled" transform="translate(-268,36)"><rect id="rect1914" width="48" height="28" x="336" y="76" rx="6" ry="6" style="opacity:.03;fill:#000"/></g><g id="entry" transform="translate(-268,36)"><rect id="rect2226" width="48" height="28" x="408" y="-20" rx="6" ry="6" style="opacity:.05;fill:#000"/></g><g id="entry-disabled" transform="translate(-268,36)"><rect id="rect2232" width="48" height="28" x="408" y="76" rx="6" ry="6" style="opacity:.03;fill:#000"/></g><g id="entry-hover" transform="translate(-268,36)"><rect id="rect2228" width="48" height="28" x="408" y="12" rx="6" ry="6" style="opacity:.05;fill:#000"/><path id="rect2335" style="opacity:.35;fill:#000" d="m 414,12 c -3.324,0 -6,2.676 -6,6 v 16 c 0,3.324 2.676,6 6,6 h 36 c 3.324,0 6,-2.676 6,-6 V 18 c 0,-3.324 -2.676,-6 -6,-6 z m 0,2 h 36 c 2.216,0 4,1.784 4,4 v 16 c 0,2.216 -1.784,4 -4,4 h -36 c -2.216,0 -4,-1.784 -4,-4 V 18 c 0,-2.216 1.784,-4 4,-4 z"/></g><g id="checkbox-unchecked-hover" transform="translate(-268,64)"><rect style="opacity:0;fill:#000;stroke-width:3;stroke-linecap:round;stroke-linejoin:round;paint-order:stroke fill markers" id="rect3491" width="24" height="24" x="284" y="120" rx="0" ry="0"/><path id="path3334" d="m 296,122 c -5.52,0 -10,4.48 -10,10 0,5.52 4.48,10 10,10 5.52,0 10,-4.48 10,-10 0,-5.52 -4.48,-10 -10,-10 z m 0,18 c -4.42,0 -8,-3.58 -8,-8 0,-4.42 3.58,-8 8,-8 4.42,0 8,3.58 8,8 0,4.42 -3.58,8 -8,8 z" style="opacity:.65;fill:#000"/></g><g id="radio-unchecked-hover" transform="translate(-268,64)"><rect style="opacity:0;fill:#000;stroke-width:3;stroke-linecap:round;stroke-linejoin:round;paint-order:stroke fill markers" id="rect1131" width="24" height="24" x="312" y="120" rx="0" ry="0"/><path id="path3361" d="m 324,122 c -5.52,0 -10,4.48 -10,10 0,5.52 4.48,10 10,10 5.52,0 10,-4.48 10,-10 0,-5.52 -4.48,-10 -10,-10 z m 0,18 c -4.42,0 -8,-3.58 -8,-8 0,-4.42 3.58,-8 8,-8 4.42,0 8,3.58 8,8 0,4.42 -3.58,8 -8,8 z" style="opacity:.65;fill:#000"/></g><g id="checkbox-unchecked-disabled" transform="translate(-268,36)"><rect style="opacity:0;fill:#000;stroke-width:3;stroke-linecap:round;stroke-linejoin:round;paint-order:stroke fill markers" id="rect1129" width="24" height="24" x="284" y="204" rx="0" ry="0"/><path id="path1221" d="m 296,206 c -5.52,0 -10,4.48 -10,10 0,5.52 4.48,10 10,10 5.52,0 10,-4.48 10,-10 0,-5.52 -4.48,-10 -10,-10 z m 0,18 c -4.42,0 -8,-3.58 -8,-8 0,-4.42 3.58,-8 8,-8 4.42,0 8,3.58 8,8 0,4.42 -3.58,8 -8,8 z" style="opacity:.25;fill:#000"/></g><g id="radio-unchecked-disabled" transform="translate(-268,36)"><rect style="opacity:0;fill:#000;stroke-width:3;stroke-linecap:round;stroke-linejoin:round;paint-order:stroke fill markers" id="rect1137" width="24" height="24" x="312" y="204" rx="0" ry="0"/><path id="path1223" d="m 324,206 c -5.52,0 -10,4.48 -10,10 0,5.52 4.48,10 10,10 5.52,0 10,-4.48 10,-10 0,-5.52 -4.48,-10 -10,-10 z m 0,18 c -4.42,0 -8,-3.58 -8,-8 0,-4.42 3.58,-8 8,-8 4.42,0 8,3.58 8,8 0,4.42 -3.58,8 -8,8 z" style="opacity:.25;fill:#000"/></g><g id="menu-checkbox-unchecked-disabled" transform="translate(-268,-20)"><path id="path2146" d="m 356,208 a 8,8 0 0 0 -8,8 8,8 0 0 0 8,8 8,8 0 0 0 8,-8 8,8 0 0 0 -8,-8 z m 0,2 a 6,6 0 0 1 6,6 6,6 0 0 1 -6,6 6,6 0 0 1 -6,-6 6,6 0 0 1 6,-6 z" style="opacity:.25;fill:#000"/></g><g id="menu-radio-unchecked-disabled" transform="translate(-268,-20)"><path id="path2148" d="m 380,208 a 8,8 0 0 0 -8,8 8,8 0 0 0 8,8 8,8 0 0 0 8,-8 8,8 0 0 0 -8,-8 z m 0,2 a 6,6 0 0 1 6,6 6,6 0 0 1 -6,6 6,6 0 0 1 -6,-6 6,6 0 0 1 6,-6 z" style="opacity:.25;fill:#000"/></g><g id="entry-background" transform="matrix(0.04166667,0,0,0.07142857,303,47.428571)"><rect id="rect5636" width="48" height="28" x="408" y="-20" rx="0" ry="0" style="opacity:.05;fill:#000"/></g><g id="entry-background-disabled" transform="matrix(0.04166667,0,0,0.07142857,303,76.571429)"><rect id="rect5640" width="48" height="28" x="408" y="76" rx="0" ry="0" style="opacity:.03;fill:#000"/></g><use id="combo-right-entry" width="100%" height="100%" x="0" y="0" clip-path="url(#clipPath6274)" transform="translate(52)" xlink:href="#entry"/><use id="combo-right-entry-disabled" width="100%" height="100%" x="0" y="0" clip-path="url(#clipPath6323)" transform="translate(52)" xlink:href="#entry-disabled"/><use id="combo-right-entry-hover" width="100%" height="100%" x="0" y="0" clip-path="url(#clipPath6286)" transform="translate(52)" xlink:href="#entry-hover"/><use id="combo-left-entry" width="100%" height="100%" x="0" y="0" clip-path="url(#clipPath6274)" transform="matrix(-1,0,0,1,380,0)" xlink:href="#entry"/><use id="combo-left-entry-disabled" width="100%" height="100%" x="0" y="0" clip-path="url(#clipPath6323)" transform="matrix(-1,0,0,1,380,0)" xlink:href="#entry-disabled"/><use id="combo-left-entry-hover" width="100%" height="100%" x="0" y="0" clip-path="url(#clipPath6286)" transform="matrix(-1,0,0,1,380,0)" xlink:href="#entry-hover"/><use id="spin-ltr-up" width="100%" height="100%" x="0" y="0" clip-path="url(#clipPath6482)" transform="translate(104)" xlink:href="#entry"/><use id="spin-ltr-up-disabled" width="100%" height="100%" x="0" y="0" clip-path="url(#clipPath6494)" transform="translate(104)" xlink:href="#entry-disabled"/><use id="spin-ltr-up-hover" width="100%" height="100%" x="0" y="0" clip-path="url(#clipPath6486)" transform="translate(104)" xlink:href="#entry-hover"/><use id="spin-rtl-up" width="100%" height="100%" x="0" y="0" clip-path="url(#clipPath6482)" transform="matrix(-1,0,0,1,432,0)" xlink:href="#entry"/><use id="spin-rtl-up-disabled" width="100%" height="100%" x="0" y="0" clip-path="url(#clipPath6494)" transform="matrix(-1,0,0,1,432,0)" xlink:href="#entry-disabled"/><use id="spin-rtl-up-hover" width="100%" height="100%" x="0" y="0" clip-path="url(#clipPath6486)" transform="matrix(-1,0,0,1,432,0)" xlink:href="#entry-hover"/><use id="spin-ltr-down" width="100%" height="100%" x="0" y="0" clip-path="url(#clipPath6482)" transform="matrix(1,0,0,-1,104,60)" xlink:href="#entry"/><use id="spin-rtl-down" width="100%" height="100%" x="0" y="0" clip-path="url(#clipPath6482)" transform="rotate(180,216,30)" xlink:href="#entry"/><use id="spin-ltr-down-hover" width="100%" height="100%" x="0" y="0" clip-path="url(#clipPath6486)" transform="matrix(1,0,0,-1,104,124)" xlink:href="#entry-hover"/><use id="spin-rtl-down-hover" width="100%" height="100%" x="0" y="0" clip-path="url(#clipPath6486)" transform="rotate(180,216,62)" xlink:href="#entry-hover"/><use id="spin-ltr-down-disabled" width="100%" height="100%" x="0" y="0" clip-path="url(#clipPath6494)" transform="matrix(1,0,0,-1,104,252)" xlink:href="#entry-disabled"/><use id="spin-rtl-down-disabled" width="100%" height="100%" x="0" y="0" clip-path="url(#clipPath6494)" transform="rotate(180,216,126)" xlink:href="#entry-disabled"/><g id="checkbox-unchecked" transform="translate(-268,36)"><rect style="opacity:0;fill:#000;stroke-width:3;stroke-linecap:round;stroke-linejoin:round;paint-order:stroke fill markers" id="rect2221" width="24" height="24" x="284" y="120" rx="0" ry="0"/><path id="path2223" d="m 296,122 c -5.52,0 -10,4.48 -10,10 0,5.52 4.48,10 10,10 5.52,0 10,-4.48 10,-10 0,-5.52 -4.48,-10 -10,-10 z m 0,18 c -4.42,0 -8,-3.58 -8,-8 0,-4.42 3.58,-8 8,-8 4.42,0 8,3.58 8,8 0,4.42 -3.58,8 -8,8 z" style="opacity:.5;fill:#000"/></g><g id="radio-unchecked" transform="translate(-268,36)"><rect style="opacity:0;fill:#000;stroke-width:3;stroke-linecap:round;stroke-linejoin:round;paint-order:stroke fill markers" id="rect2227" width="24" height="24" x="312" y="120" rx="0" ry="0"/><path id="path2229" d="m 324,122 c -5.52,0 -10,4.48 -10,10 0,5.52 4.48,10 10,10 5.52,0 10,-4.48 10,-10 0,-5.52 -4.48,-10 -10,-10 z m 0,18 c -4.42,0 -8,-3.58 -8,-8 0,-4.42 3.58,-8 8,-8 4.42,0 8,3.58 8,8 0,4.42 -3.58,8 -8,8 z" style="opacity:.5;fill:#000"/></g><g id="menu-checkbox-unchecked" transform="translate(-268,36)"><path id="path2233" d="m 356,124 a 8,8 0 0 0 -8,8 8,8 0 0 0 8,8 8,8 0 0 0 8,-8 8,8 0 0 0 -8,-8 z m 0,2 a 6,6 0 0 1 6,6 6,6 0 0 1 -6,6 6,6 0 0 1 -6,-6 6,6 0 0 1 6,-6 z" style="opacity:.5;fill:#000"/></g><g id="menu-radio-unchecked" transform="translate(-268,36)"><path id="path2237" d="m 380,124 a 8,8 0 0 0 -8,8 8,8 0 0 0 8,8 8,8 0 0 0 8,-8 8,8 0 0 0 -8,-8 z m 0,2 a 6,6 0 0 1 6,6 6,6 0 0 1 -6,6 6,6 0 0 1 -6,-6 6,6 0 0 1 6,-6 z" style="opacity:.5;fill:#000"/></g><g id="checkbox-unchecked-active" transform="translate(-268,92)"><rect style="opacity:0;fill:#000;stroke-width:3;stroke-linecap:round;stroke-linejoin:round;paint-order:stroke fill markers" id="rect2259" width="24" height="24" x="284" y="120" rx="0" ry="0"/><path id="path2261" d="m 296,122 c -5.52,0 -10,4.48 -10,10 0,5.52 4.48,10 10,10 5.52,0 10,-4.48 10,-10 0,-5.52 -4.48,-10 -10,-10 z m 0,18 c -4.42,0 -8,-3.58 -8,-8 0,-4.42 3.58,-8 8,-8 4.42,0 8,3.58 8,8 0,4.42 -3.58,8 -8,8 z" style="opacity:.8;fill:#000"/></g><g id="radio-unchecked-active" transform="translate(-268,92)"><rect style="opacity:0;fill:#000;stroke-width:3;stroke-linecap:round;stroke-linejoin:round;paint-order:stroke fill markers" id="rect2265" width="24" height="24" x="312" y="120" rx="0" ry="0"/><path id="path2267" d="m 324,122 c -5.52,0 -10,4.48 -10,10 0,5.52 4.48,10 10,10 5.52,0 10,-4.48 10,-10 0,-5.52 -4.48,-10 -10,-10 z m 0,18 c -4.42,0 -8,-3.58 -8,-8 0,-4.42 3.58,-8 8,-8 4.42,0 8,3.58 8,8 0,4.42 -3.58,8 -8,8 z" style="opacity:.8;fill:#000"/></g></g></svg>