<svg xmlns="http://www.w3.org/2000/svg" xmlns:svg="http://www.w3.org/2000/svg" xmlns:xlink="http://www.w3.org/1999/xlink" id="svg715" width="340" height="500" version="1.1" viewBox="0 0 340 500"><metadata id="metadata717"/><defs id="defs286"><linearGradient id="color-text"><stop id="stop8" offset="1" stop-color="#000" stop-opacity=".87"/></linearGradient><linearGradient id="color-text-disabled"><stop id="stop11" offset="1" stop-color="#000" stop-opacity=".38"/></linearGradient><linearGradient id="color-text-secondary"><stop id="stop14" offset="1" stop-color="#000" stop-opacity=".6"/></linearGradient><linearGradient id="color-text-secondary-disabled"><stop id="stop17" offset="1" stop-color="#000" stop-opacity=".26"/></linearGradient><linearGradient id="color-track" x1="0" x2="24" y1="0" y2="0" gradientUnits="userSpaceOnUse"><stop id="stop20" offset="1" stop-color="#000" stop-opacity=".26"/></linearGradient><linearGradient id="color-track-disabled" x1="0" x2="24" y1="0" y2="0" gradientUnits="userSpaceOnUse"><stop id="stop23" offset="1" stop-color="#000" stop-opacity=".12"/></linearGradient><linearGradient id="color-divider"><stop id="stop26" offset="1" stop-color="#000" stop-opacity=".12"/></linearGradient><linearGradient id="color-primary"><stop id="stop32" offset="1" stop-color="#cd7092"/></linearGradient><linearGradient id="color-background"><stop id="stop35" offset="1" stop-color="#F2F2F2"/></linearGradient><linearGradient id="color-base"><stop id="stop41" offset="1" stop-color="#FFF"/></linearGradient><linearGradient id="color-base-alt" x1="1" x2="2" y1="0" y2="0" gradientUnits="userSpaceOnUse"><stop id="stop44" offset="1" stop-color="#FAFAFA"/></linearGradient><linearGradient id="color-frame"><stop id="stop47" offset="1" stop-color="#000" stop-opacity=".12"/></linearGradient><rect id="icon-size" width="16" height="16" x="0" y="0" fill="none"/><g id="base-scale-horz-trough"><rect id="rect203" width="24" height="24" x="0" y="0" fill="none"/><rect id="rect205" width="12" height="2" x="6" y="11"/></g><g id="base-scale-vert-trough"><use id="use208" width="100%" height="100%" x="0" y="0" transform="rotate(90,12,12)" xlink:href="#base-scale-horz-trough"/></g><g id="base-scrollbar-horz-slider"><rect id="rect211" width="17" height="17" x="0" y="-1" fill="none"/><rect id="rect213" width="9" height="8" x="4" y="4" rx="4"/></g><g id="base-scrollbar-horz-trough"><rect id="rect216" width="1" height="2" x="0" y="-1" fill="url(#color-base)"/><rect id="rect218" width="1" height="1" x="0" y="-1" fill="url(#color-divider)"/></g><g id="base-scrollbar-vert-ltr-slider"><use id="use221" width="100%" height="100%" x="0" y="0" transform="rotate(-90,8.5,8.5)" xlink:href="#base-scrollbar-horz-slider"/></g><g id="base-scrollbar-vert-ltr-trough"><use id="use224" width="100%" height="100%" x="0" y="0" transform="rotate(-90,0.5,0.5)" xlink:href="#base-scrollbar-horz-trough"/></g><g id="base-scrollbar-vert-rtl-slider"><use id="use227" width="100%" height="100%" x="0" y="0" transform="rotate(90,8,8)" xlink:href="#base-scrollbar-horz-slider"/></g><g id="base-scrollbar-vert-rtl-trough"><use id="use230" width="100%" height="100%" x="0" y="0" transform="rotate(90,0.5,0.5)" xlink:href="#base-scrollbar-horz-trough"/></g><g id="base-handle-horz"><circle id="circle233" cx="2" cy="2" r="2"/><circle id="circle235" cx="8" cy="2" r="2"/><circle id="circle237" cx="14" cy="2" r="2"/></g><g id="base-handle-vert"><use id="use240" width="100%" height="100%" x="0" y="0" transform="rotate(90,2,2)" xlink:href="#base-handle-horz"/></g><path id="pan-path" d="M 13,6 8,11 3,6 Z"/><g id="base-pan-down"><use id="use244" width="100%" height="100%" x="0" y="0" xlink:href="#icon-size"/><use id="use246" width="100%" height="100%" x="0" y="0" xlink:href="#pan-path"/></g><g id="base-pan-up"><use id="use249" width="100%" height="100%" x="0" y="0" xlink:href="#icon-size"/><use id="use251" width="100%" height="100%" x="0" y="0" transform="rotate(180,8,8)" xlink:href="#pan-path"/></g><g id="base-pan-left"><use id="use254" width="100%" height="100%" x="0" y="0" xlink:href="#icon-size"/><use id="use256" width="100%" height="100%" x="0" y="0" transform="rotate(90,8,8)" xlink:href="#pan-path"/></g><g id="base-pan-right"><use id="use259" width="100%" height="100%" x="0" y="0" xlink:href="#icon-size"/><use id="use261" width="100%" height="100%" x="0" y="0" transform="rotate(-90,8,8)" xlink:href="#pan-path"/></g><g id="base-pan-left-semi"><use id="use264" width="100%" height="100%" x="0" y="0" xlink:href="#icon-size"/><use id="use266" width="100%" height="100%" x="0" y="0" transform="rotate(45,8,8)" xlink:href="#pan-path"/></g><g id="base-pan-right-semi"><use id="use269" width="100%" height="100%" x="0" y="0" xlink:href="#icon-size"/><use id="use271" width="100%" height="100%" x="0" y="0" transform="rotate(-45,8,8)" xlink:href="#pan-path"/></g><g id="base-treeview-ltr-button"><rect id="rect274" width="2" height="2" x="0" y="0" fill="url(#color-base)" fill-opacity="1"/><rect id="rect276" width="2" height="2" x="0" y="0" fill="url(#color-divider)" fill-opacity="1"/><rect id="rect278" width="1" height="1" x="0" y="0" fill="url(#color-base)" fill-opacity="1"/><rect id="rect280" width="1" height="1" x="0" y="0"/></g><g id="base-treeview-rtl-button"><use id="use283" width="100%" height="100%" x="0" y="0" transform="scale(-1,1)" xlink:href="#base-treeview-ltr-button"/></g><linearGradient id="linearGradient2364" x1="408" x2="456" y1="58" y2="58" gradientUnits="userSpaceOnUse" xlink:href="#color-primary"/><clipPath id="clipPath2990" clipPathUnits="userSpaceOnUse"><rect style="opacity:.03;fill:#000;stroke-width:2;stroke-linecap:round;stroke-linejoin:round;paint-order:stroke fill markers" id="rect2992" width="36" height="132" x="432" y="48" rx="0" ry="0"/></clipPath><clipPath id="clipPath2996" clipPathUnits="userSpaceOnUse"><rect style="opacity:.03;fill:#000;stroke-width:2;stroke-linecap:round;stroke-linejoin:round;paint-order:stroke fill markers" id="rect2998" width="36" height="132" x="432" y="48" rx="0" ry="0"/></clipPath><clipPath id="clipPath3002" clipPathUnits="userSpaceOnUse"><rect style="opacity:.03;fill:#000;stroke-width:2;stroke-linecap:round;stroke-linejoin:round;paint-order:stroke fill markers" id="rect3004" width="36" height="132" x="432" y="48" rx="0" ry="0"/></clipPath><clipPath id="clipPath3037" clipPathUnits="userSpaceOnUse"><rect style="opacity:.03;fill:#000;stroke-width:2;stroke-linecap:round;stroke-linejoin:round;paint-order:stroke fill markers" id="rect3039" width="36" height="132" x="432" y="48" rx="0" ry="0"/></clipPath><clipPath id="clipPath3276" clipPathUnits="userSpaceOnUse"><rect style="opacity:.03;fill:#000;stroke-width:1.05131;stroke-linecap:round;stroke-linejoin:round;paint-order:stroke fill markers" id="rect3278" width="28" height="18" x="432" y="72" rx="0" ry="0"/></clipPath><clipPath id="clipPath3280" clipPathUnits="userSpaceOnUse"><rect style="opacity:.03;fill:#000;stroke-width:1.05131;stroke-linecap:round;stroke-linejoin:round;paint-order:stroke fill markers" id="rect3282" width="28" height="18" x="432" y="40" rx="0" ry="0"/></clipPath><clipPath id="clipPath3284" clipPathUnits="userSpaceOnUse"><rect style="opacity:.03;fill:#000;stroke-width:1.05131;stroke-linecap:round;stroke-linejoin:round;paint-order:stroke fill markers" id="rect3286" width="28" height="18" x="432" y="8" rx="0" ry="0"/></clipPath><clipPath id="clipPath3288" clipPathUnits="userSpaceOnUse"><rect style="opacity:.03;fill:#000;stroke-width:1.05131;stroke-linecap:round;stroke-linejoin:round;paint-order:stroke fill markers" id="rect3290" width="28" height="18" x="432" y="-24" rx="0" ry="0"/></clipPath><linearGradient id="linearGradient1317" x1="286" x2="306" y1="160" y2="160" gradientUnits="userSpaceOnUse" xlink:href="#color-primary"/><linearGradient id="linearGradient1319" x1="314" x2="334" y1="160" y2="160" gradientUnits="userSpaceOnUse" xlink:href="#color-primary"/><linearGradient id="linearGradient1327" x1="286" x2="306" y1="188" y2="188" gradientUnits="userSpaceOnUse" xlink:href="#color-primary"/><linearGradient id="linearGradient1329" x1="314" x2="334" y1="188" y2="188" gradientUnits="userSpaceOnUse" xlink:href="#color-primary"/><linearGradient id="linearGradient2228" x1="372" x2="388" y1="188" y2="188" gradientUnits="userSpaceOnUse" xlink:href="#color-primary"/><linearGradient id="linearGradient2230" x1="348" x2="364" y1="188" y2="188" gradientUnits="userSpaceOnUse" xlink:href="#color-primary"/><linearGradient id="linearGradient2232" x1="348" x2="364" y1="160" y2="160" gradientUnits="userSpaceOnUse" xlink:href="#color-primary"/><linearGradient id="linearGradient2234" x1="372" x2="388" y1="160" y2="160" gradientUnits="userSpaceOnUse" xlink:href="#color-primary"/><linearGradient id="linearGradient2260" x1="0" x2="24" y1="0" y2="0" gradientUnits="userSpaceOnUse" xlink:href="#color-primary"/><linearGradient id="linearGradient2262" x1="6" x2="18" y1="6" y2="6" gradientUnits="userSpaceOnUse" xlink:href="#color-primary"/><linearGradient id="linearGradient2264" x1="0" x2="24" y1="0" y2="0" gradientUnits="userSpaceOnUse" xlink:href="#color-primary"/><linearGradient id="linearGradient2266" x1="6" x2="18" y1="6" y2="6" gradientUnits="userSpaceOnUse" xlink:href="#color-primary"/><linearGradient id="linearGradient2268" x1="0" x2="24" y1="0" y2="0" gradientUnits="userSpaceOnUse" xlink:href="#color-primary"/><linearGradient id="linearGradient2270" x1="6" x2="18" y1="6" y2="6" gradientUnits="userSpaceOnUse" xlink:href="#color-primary"/><linearGradient id="linearGradient2276" x1="0" x2="24" y1="0" y2="0" gradientUnits="userSpaceOnUse" xlink:href="#color-primary"/><linearGradient id="linearGradient2278" x1="0" x2="24" y1="0" y2="0" gradientUnits="userSpaceOnUse" xlink:href="#color-primary"/><linearGradient id="linearGradient2354" x1="0" x2="1" y1="0" y2="0" gradientUnits="userSpaceOnUse" xlink:href="#color-primary"/><linearGradient id="linearGradient2356" x1="0" x2="4" y1="0" y2="0" gradientUnits="userSpaceOnUse" xlink:href="#color-primary"/><clipPath id="clipPath6274" clipPathUnits="userSpaceOnUse"><rect style="opacity:.35;fill:#000;stroke-width:2;stroke-linecap:round;stroke-linejoin:round;paint-order:stroke fill markers" id="rect6276" width="28" height="132" x="164" y="12" rx="0" ry="0"/></clipPath><clipPath id="clipPath6286" clipPathUnits="userSpaceOnUse"><rect style="opacity:.35;fill:#000;stroke-width:2;stroke-linecap:round;stroke-linejoin:round;paint-order:stroke fill markers" id="rect6288" width="28" height="132" x="164" y="12" rx="0" ry="0"/></clipPath><clipPath id="clipPath6290" clipPathUnits="userSpaceOnUse"><rect style="opacity:.35;fill:#000;stroke-width:2;stroke-linecap:round;stroke-linejoin:round;paint-order:stroke fill markers" id="rect6292" width="28" height="132" x="164" y="12" rx="0" ry="0"/></clipPath><clipPath id="clipPath6323" clipPathUnits="userSpaceOnUse"><rect style="opacity:.35;fill:#000;stroke-width:2;stroke-linecap:round;stroke-linejoin:round;paint-order:stroke fill markers" id="rect6325" width="28" height="132" x="164" y="12" rx="0" ry="0"/></clipPath><clipPath id="clipPath6482" clipPathUnits="userSpaceOnUse"><rect style="opacity:.35;fill:#000;stroke-width:2;stroke-linecap:round;stroke-linejoin:round;paint-order:stroke fill markers" id="rect6484" width="26" height="16" x="164" y="14" rx="0" ry="0"/></clipPath><clipPath id="clipPath6486" clipPathUnits="userSpaceOnUse"><rect style="opacity:.35;fill:#000;stroke-width:2;stroke-linecap:round;stroke-linejoin:round;paint-order:stroke fill markers" id="rect6488" width="26" height="16" x="164" y="46" rx="0" ry="0"/></clipPath><clipPath id="clipPath6490" clipPathUnits="userSpaceOnUse"><rect style="opacity:.35;fill:#000;stroke-width:2;stroke-linecap:round;stroke-linejoin:round;paint-order:stroke fill markers" id="rect6492" width="26" height="16" x="164" y="78" rx="0" ry="0"/></clipPath><clipPath id="clipPath6494" clipPathUnits="userSpaceOnUse"><rect style="opacity:.35;fill:#000;stroke-width:2;stroke-linecap:round;stroke-linejoin:round;paint-order:stroke fill markers" id="rect6496" width="26" height="16" x="164" y="110" rx="0" ry="0"/></clipPath><linearGradient id="linearGradient2357" x1="314" x2="334" y1="160" y2="160" gradientUnits="userSpaceOnUse" xlink:href="#color-primary"/><linearGradient id="linearGradient2359" x1="286" x2="306" y1="160" y2="160" gradientUnits="userSpaceOnUse" xlink:href="#color-primary"/><linearGradient id="linearGradient2569" x1="372" x2="388" y1="160" y2="160" gradientUnits="userSpaceOnUse" xlink:href="#color-primary"/><linearGradient id="linearGradient2571" x1="348" x2="364" y1="160" y2="160" gradientUnits="userSpaceOnUse" xlink:href="#color-primary"/><linearGradient id="linearGradient2599" x1="348" x2="364" y1="188" y2="188" gradientUnits="userSpaceOnUse" xlink:href="#color-primary"/><linearGradient id="linearGradient2601" x1="372" x2="388" y1="188" y2="188" gradientUnits="userSpaceOnUse" xlink:href="#color-primary"/><linearGradient id="linearGradient2637" x1="314" x2="334" y1="160" y2="160" gradientUnits="userSpaceOnUse" xlink:href="#color-primary"/><linearGradient id="linearGradient2639" x1="286" x2="306" y1="160" y2="160" gradientUnits="userSpaceOnUse" xlink:href="#color-primary"/><linearGradient id="linearGradient2671" x1="314" x2="334" y1="188" y2="188" gradientUnits="userSpaceOnUse" xlink:href="#color-primary"/><linearGradient id="linearGradient2673" x1="286" x2="306" y1="188" y2="188" gradientUnits="userSpaceOnUse" xlink:href="#color-primary"/><linearGradient id="linearGradient2687" x1="314" x2="334" y1="188" y2="188" gradientUnits="userSpaceOnUse" xlink:href="#color-primary"/><linearGradient id="linearGradient2689" x1="286" x2="306" y1="188" y2="188" gradientUnits="userSpaceOnUse" xlink:href="#color-primary"/><linearGradient id="linearGradient2829" x1="314" x2="334" y1="160" y2="160" gradientUnits="userSpaceOnUse" xlink:href="#color-primary"/><linearGradient id="linearGradient2831" x1="286" x2="306" y1="160" y2="160" gradientUnits="userSpaceOnUse" xlink:href="#color-primary"/><linearGradient id="linearGradient2863" x1="314" x2="334" y1="188" y2="188" gradientUnits="userSpaceOnUse" xlink:href="#color-primary"/><linearGradient id="linearGradient2865" x1="286" x2="306" y1="188" y2="188" gradientUnits="userSpaceOnUse" xlink:href="#color-primary"/></defs><use id="use2857" width="100%" height="100%" x="0" y="0" clip-path="url(#clipPath2990)" transform="translate(278,-16)" xlink:href="#g2474"/><use id="use2859" width="100%" height="100%" x="0" y="0" clip-path="url(#clipPath3037)" transform="translate(278,-16)" xlink:href="#g2463"/><use id="use2861" width="100%" height="100%" x="0" y="0" clip-path="url(#clipPath2996)" transform="translate(278,-16)" xlink:href="#g2471"/><use id="use2863" width="100%" height="100%" x="0" y="0" clip-path="url(#clipPath3002)" transform="translate(278,-16)" xlink:href="#g2467"/><use id="use3121" width="100%" height="100%" x="0" y="0" clip-path="url(#clipPath3288)" transform="translate(330,-16)" xlink:href="#g2474"/><use id="use3123" width="100%" height="100%" x="0" y="0" clip-path="url(#clipPath3276)" transform="translate(330,-16)" xlink:href="#g2463"/><use id="use3125" width="100%" height="100%" x="0" y="0" clip-path="url(#clipPath3284)" transform="translate(330,-16)" xlink:href="#g2471"/><use id="use3127" width="100%" height="100%" x="0" y="0" clip-path="url(#clipPath3280)" transform="translate(330,-16)" xlink:href="#g2467"/><use id="use3129" width="100%" height="100%" x="0" y="0" clip-path="url(#clipPath2990)" transform="matrix(-1,0,0,1,606,-16)" xlink:href="#g2474"/><use id="use3131" width="100%" height="100%" x="0" y="0" clip-path="url(#clipPath3037)" transform="matrix(-1,0,0,1,606,-16)" xlink:href="#g2463"/><use id="use3133" width="100%" height="100%" x="0" y="0" clip-path="url(#clipPath2996)" transform="matrix(-1,0,0,1,606,-16)" xlink:href="#g2471"/><use id="use3135" width="100%" height="100%" x="0" y="0" clip-path="url(#clipPath3002)" transform="matrix(-1,0,0,1,606,-16)" xlink:href="#g2467"/><use id="use3292" width="100%" height="100%" x="0" y="0" clip-path="url(#clipPath3288)" transform="matrix(1,0,0,-1,330,44)" xlink:href="#g2474"/><use id="use3294" width="100%" height="100%" x="0" y="0" clip-path="url(#clipPath3288)" transform="matrix(-1,0,0,1,658,-16)" xlink:href="#g2474"/><use id="use3296" width="100%" height="100%" x="0" y="0" clip-path="url(#clipPath3288)" transform="rotate(180,329,22)" xlink:href="#g2474"/><use id="use3298" width="100%" height="100%" x="0" y="0" clip-path="url(#clipPath3284)" transform="matrix(1,0,0,-1,330,108)" xlink:href="#g2471"/><use id="use3300" width="100%" height="100%" x="0" y="0" clip-path="url(#clipPath3284)" transform="matrix(-1,0,0,1,658,-16)" xlink:href="#g2471"/><use id="use3302" width="100%" height="100%" x="0" y="0" clip-path="url(#clipPath3284)" transform="rotate(180,329,54)" xlink:href="#g2471"/><use id="use3304" width="100%" height="100%" x="0" y="0" clip-path="url(#clipPath3280)" transform="matrix(1,0,0,-1,330,172)" xlink:href="#g2467"/><use id="use3306" width="100%" height="100%" x="0" y="0" clip-path="url(#clipPath3280)" transform="matrix(-1,0,0,1,658,-16)" xlink:href="#g2467"/><use id="use3308" width="100%" height="100%" x="0" y="0" clip-path="url(#clipPath3280)" transform="rotate(180,329,86)" xlink:href="#g2467"/><use id="use3310" width="100%" height="100%" x="0" y="0" clip-path="url(#clipPath3276)" transform="matrix(1,0,0,-1,330,236)" xlink:href="#g2463"/><use id="use3312" width="100%" height="100%" x="0" y="0" clip-path="url(#clipPath3276)" transform="matrix(-1,0,0,1,658,-16)" xlink:href="#g2463"/><use id="use3314" width="100%" height="100%" x="0" y="0" clip-path="url(#clipPath3276)" transform="rotate(180,329,118)" xlink:href="#g2463"/><g id="layer2"><rect style="fill:#f2f2f2;stroke-width:2.09717;stroke-linecap:round;stroke-linejoin:round;paint-order:stroke fill markers" id="rect1648" width="340" height="500" x="0" y="0" rx="0" ry="0"/></g><g id="layer1"><g id="scale-slider" transform="translate(140,244)"><circle id="circle510" cx="12" cy="12" r="12" fill="url(#color-primary)" fill-opacity="0" style="fill:url(#linearGradient2260)"/><circle id="circle512" cx="12" cy="12" r="6" fill="url(#color-primary)" style="fill:url(#linearGradient2262)"/></g><g id="scale-slider-hover" transform="translate(140,276)"><circle id="circle515" cx="12" cy="12" r="12" fill="url(#color-primary)" fill-opacity=".08" style="fill:url(#linearGradient2264)"/><circle id="circle517" cx="12" cy="12" r="6" fill="url(#color-primary)" style="fill:url(#linearGradient2266)"/></g><g id="scale-slider-active" transform="translate(140,308)"><circle id="circle520" cx="12" cy="12" r="12" fill="url(#color-primary)" fill-opacity=".2" style="fill:url(#linearGradient2268)"/><circle id="circle522" cx="12" cy="12" r="6" fill="url(#color-primary)" style="fill:url(#linearGradient2270)"/></g><g id="scale-horz-trough-active" transform="translate(172,308)"><use id="use535" width="100%" height="100%" x="0" y="0" fill="url(#color-primary)" xlink:href="#base-scale-horz-trough" style="fill:url(#linearGradient2276)"/></g><g id="scale-vert-trough-active" transform="translate(204,308)"><use id="use544" width="100%" height="100%" x="0" y="0" fill="url(#color-primary)" xlink:href="#base-scale-vert-trough" style="fill:url(#linearGradient2278)"/></g><g id="tab" transform="translate(152,388)"><rect id="rect670" width="1" height="1" y="0" fill="url(#color-primary)" style="fill:url(#linearGradient2354)" x="0"/></g><g id="progressbar-progress" transform="translate(164,388)"><rect id="rect673" width="4" height="4" y="0" fill="url(#color-primary)" style="fill:url(#linearGradient2356)" x="0"/></g><g id="entry-active" transform="translate(-268,36)"><rect id="rect2230" width="48" height="28" x="408" y="44" rx="6" ry="6" style="opacity:.05;fill:#000"/><path id="path2356" style="opacity:1;fill:url(#linearGradient2364);fill-opacity:1" d="m 414,44 c -3.324,0 -6,2.676 -6,6 v 16 c 0,3.324 2.676,6 6,6 h 36 c 3.324,0 6,-2.676 6,-6 V 50 c 0,-3.324 -2.676,-6 -6,-6 z m 0,2 h 36 c 2.216,0 4,1.784 4,4 v 16 c 0,2.216 -1.784,4 -4,4 h -36 c -2.216,0 -4,-1.784 -4,-4 V 50 c 0,-2.216 1.784,-4 4,-4 z"/></g><g id="checkbox-checked" transform="translate(-268,120)"><rect style="opacity:0;fill:#000;stroke-width:3;stroke-linecap:round;stroke-linejoin:round;paint-order:stroke fill markers" id="rect1125" width="24" height="24" x="284" y="148" rx="0" ry="0"/><path id="path3316" d="m 296,150 c -5.52,0 -10,4.48 -10,10 0,5.52 4.48,10 10,10 5.52,0 10,-4.48 10,-10 0,-5.52 -4.48,-10 -10,-10 z m 5.5898,4.5801 L 303,156 l -9,9 -5,-5 1.4102,-1.4102 3.5898,3.5801 z" style="fill:url(#linearGradient1317);fill-opacity:1"/></g><g id="checkbox-mixed" transform="translate(-268,204)"><rect style="opacity:0;fill:#000;stroke-width:3;stroke-linecap:round;stroke-linejoin:round;paint-order:stroke fill markers" id="rect1127" width="24" height="24" x="284" y="176" rx="0" ry="0"/><path id="path3325" d="m 296,178 c -5.52,0 -10,4.48 -10,10 0,5.52 4.48,10 10,10 5.52,0 10,-4.48 10,-10 0,-5.52 -4.48,-10 -10,-10 z m -5,9 h 10 v 2 h -10 z" style="fill:url(#linearGradient1327);fill-opacity:1"/></g><g id="radio-checked" transform="translate(-268,120)"><rect style="opacity:0;fill:#000;stroke-width:3;stroke-linecap:round;stroke-linejoin:round;paint-order:stroke fill markers" id="rect1133" width="24" height="24" x="312" y="148" rx="0" ry="0"/><path id="path3343" d="m 324,150 c -5.52,0 -10,4.48 -10,10 0,5.52 4.48,10 10,10 5.52,0 10,-4.48 10,-10 0,-5.52 -4.48,-10 -10,-10 z m 0,7 c 1.656,0 3,1.344 3,3 0,1.656 -1.344,3 -3,3 -1.656,0 -3,-1.344 -3,-3 0,-1.656 1.344,-3 3,-3 z" style="fill:url(#linearGradient1319);fill-opacity:1"/></g><g id="radio-mixed" transform="translate(-268,204)"><rect style="opacity:0;fill:#000;stroke-width:3;stroke-linecap:round;stroke-linejoin:round;paint-order:stroke fill markers" id="rect1135" width="24" height="24" x="312" y="176" rx="0" ry="0"/><path id="path1219" d="m 324,178 c -5.52,0 -10,4.48 -10,10 0,5.52 4.48,10 10,10 5.52,0 10,-4.48 10,-10 0,-5.52 -4.48,-10 -10,-10 z m -5,9 h 10 v 2 h -10 z" style="fill:url(#linearGradient1329);fill-opacity:1"/></g><g id="menu-checkbox-checked" transform="translate(-268,120)"><path id="path2092" d="m 356,152 a 8,8 0 0 0 -8,8 8,8 0 0 0 8,8 8,8 0 0 0 8,-8 8,8 0 0 0 -8,-8 z m 4.5996,3.5898 1.4102,1.4102 -8,8 -4,-4 1.4102,-1.4102 2.5898,2.5898 z" style="fill:url(#linearGradient2232);fill-opacity:1"/></g><g id="menu-radio-mixed" transform="translate(-268,204)"><path id="path2101" d="m 380,180 a 8,8 0 0 0 -8,8 8,8 0 0 0 8,8 8,8 0 0 0 8,-8 8,8 0 0 0 -8,-8 z m -4,7 h 8 v 2 h -8 z" style="fill:url(#linearGradient2228);fill-opacity:1"/></g><g id="menu-radio-checked" transform="translate(-268,120)"><path id="path2119" d="m 380,152 c -4.4183,0 -8,3.5817 -8,8 0,4.4183 3.5817,8 8,8 4.4183,0 8,-3.5817 8,-8 0,-4.4183 -3.5817,-8 -8,-8 z m 0,5 a 3,3 0 0 1 3,3 3,3 0 0 1 -3,3 3,3 0 0 1 -3,-3 3,3 0 0 1 3,-3 z" style="fill:url(#linearGradient2234);fill-opacity:1"/></g><g id="menu-checkbox-mixed" transform="translate(-268,204)"><path id="path2128" d="m 356,180 a 8,8 0 0 0 -8,8 8,8 0 0 0 8,8 8,8 0 0 0 8,-8 8,8 0 0 0 -8,-8 z m -4,7 h 8 v 2 h -8 z" style="fill:url(#linearGradient2230);fill-opacity:1"/></g><use id="combo-right-entry-active" width="100%" height="100%" x="0" y="0" clip-path="url(#clipPath6290)" transform="translate(52)" xlink:href="#entry-active"/><use id="combo-left-entry-active" width="100%" height="100%" x="0" y="0" clip-path="url(#clipPath6290)" transform="matrix(-1,0,0,1,380,0)" xlink:href="#entry-active"/><use id="spin-ltr-up-active" width="100%" height="100%" x="0" y="0" clip-path="url(#clipPath6490)" transform="translate(104)" xlink:href="#entry-active"/><use id="spin-rtl-up-active" width="100%" height="100%" x="0" y="0" clip-path="url(#clipPath6490)" transform="matrix(-1,0,0,1,432,0)" xlink:href="#entry-active"/><use id="spin-ltr-down-active" width="100%" height="100%" x="0" y="0" clip-path="url(#clipPath6490)" transform="matrix(1,0,0,-1,104,188)" xlink:href="#entry-active"/><use id="spin-rtl-down-active" width="100%" height="100%" x="0" y="0" clip-path="url(#clipPath6490)" transform="rotate(180,216,94)" xlink:href="#entry-active"/><g id="checkbox-checked-hover" transform="translate(-268,148)"><rect style="opacity:0;fill:#000;stroke-width:3;stroke-linecap:round;stroke-linejoin:round;paint-order:stroke fill markers" id="rect2333" width="24" height="24" x="284" y="148" rx="0" ry="0"/><path id="path2335" d="m 296,150 c -5.52,0 -10,4.48 -10,10 0,5.52 4.48,10 10,10 5.52,0 10,-4.48 10,-10 0,-5.52 -4.48,-10 -10,-10 z m 5.5898,4.5801 L 303,156 l -9,9 -5,-5 1.4102,-1.4102 3.5898,3.5801 z" style="fill:url(#linearGradient2359);fill-opacity:1"/><path id="path2361" d="m 296,150 c -5.52,0 -10,4.48 -10,10 0,5.52 4.48,10 10,10 5.52,0 10,-4.48 10,-10 0,-5.52 -4.48,-10 -10,-10 z m 5.5898,4.5801 L 303,156 l -9,9 -5,-5 1.4102,-1.4102 3.5898,3.5801 z" style="opacity:.15;fill:#fff;fill-opacity:1"/></g><g id="radio-checked-hover" transform="translate(-268,148)"><rect style="opacity:0;fill:#000;stroke-width:3;stroke-linecap:round;stroke-linejoin:round;paint-order:stroke fill markers" id="rect2339" width="24" height="24" x="312" y="148" rx="0" ry="0"/><path id="path2341" d="m 324,150 c -5.52,0 -10,4.48 -10,10 0,5.52 4.48,10 10,10 5.52,0 10,-4.48 10,-10 0,-5.52 -4.48,-10 -10,-10 z m 0,7 c 1.656,0 3,1.344 3,3 0,1.656 -1.344,3 -3,3 -1.656,0 -3,-1.344 -3,-3 0,-1.656 1.344,-3 3,-3 z" style="fill:url(#linearGradient2357);fill-opacity:1"/><path id="path2363" d="m 324,150 c -5.52,0 -10,4.48 -10,10 0,5.52 4.48,10 10,10 5.52,0 10,-4.48 10,-10 0,-5.52 -4.48,-10 -10,-10 z m 0,7 c 1.656,0 3,1.344 3,3 0,1.656 -1.344,3 -3,3 -1.656,0 -3,-1.344 -3,-3 0,-1.656 1.344,-3 3,-3 z" style="opacity:.15;fill:#fff;fill-opacity:1"/></g><g id="menu-checkbox-checked-disabled" transform="translate(-268,148)" style="opacity:.35"><path id="path2561" d="m 356,152 a 8,8 0 0 0 -8,8 8,8 0 0 0 8,8 8,8 0 0 0 8,-8 8,8 0 0 0 -8,-8 z m 4.5996,3.5898 1.4102,1.4102 -8,8 -4,-4 1.4102,-1.4102 2.5898,2.5898 z" style="fill:url(#linearGradient2571);fill-opacity:1"/></g><g id="menu-radio-checked-disabled" transform="translate(-268,148)" style="opacity:.35"><path id="path2565" d="m 380,152 c -4.4183,0 -8,3.5817 -8,8 0,4.4183 3.5817,8 8,8 4.4183,0 8,-3.5817 8,-8 0,-4.4183 -3.5817,-8 -8,-8 z m 0,5 a 3,3 0 0 1 3,3 3,3 0 0 1 -3,3 3,3 0 0 1 -3,-3 3,3 0 0 1 3,-3 z" style="fill:url(#linearGradient2569);fill-opacity:1"/></g><g id="menu-radio-mixed-disabled" transform="translate(-268,232)" style="opacity:.35"><path id="path2591" d="m 380,180 a 8,8 0 0 0 -8,8 8,8 0 0 0 8,8 8,8 0 0 0 8,-8 8,8 0 0 0 -8,-8 z m -4,7 h 8 v 2 h -8 z" style="fill:url(#linearGradient2601);fill-opacity:1"/></g><g id="menu-checkbox-mixed-disabled" transform="translate(-268,232)" style="opacity:.35"><path id="path2595" d="m 356,180 a 8,8 0 0 0 -8,8 8,8 0 0 0 8,8 8,8 0 0 0 8,-8 8,8 0 0 0 -8,-8 z m -4,7 h 8 v 2 h -8 z" style="fill:url(#linearGradient2599);fill-opacity:1"/></g><g id="checkbox-checked-active" transform="translate(-268,176)"><rect style="opacity:0;fill:#000;stroke-width:3;stroke-linecap:round;stroke-linejoin:round;paint-order:stroke fill markers" id="rect2621" width="24" height="24" x="284" y="148" rx="0" ry="0"/><path id="path2623" d="m 296,150 c -5.52,0 -10,4.48 -10,10 0,5.52 4.48,10 10,10 5.52,0 10,-4.48 10,-10 0,-5.52 -4.48,-10 -10,-10 z m 5.5898,4.5801 L 303,156 l -9,9 -5,-5 1.4102,-1.4102 3.5898,3.5801 z" style="fill:url(#linearGradient2639);fill-opacity:1"/><path id="path2625" d="m 296,150 c -5.52,0 -10,4.48 -10,10 0,5.52 4.48,10 10,10 5.52,0 10,-4.48 10,-10 0,-5.52 -4.48,-10 -10,-10 z m 5.5898,4.5801 L 303,156 l -9,9 -5,-5 1.4102,-1.4102 3.5898,3.5801 z" style="opacity:.15;fill:#000;fill-opacity:1"/></g><g id="radio-checked-active" transform="translate(-268,176)"><rect style="opacity:0;fill:#000;stroke-width:3;stroke-linecap:round;stroke-linejoin:round;paint-order:stroke fill markers" id="rect2629" width="24" height="24" x="312" y="148" rx="0" ry="0"/><path id="path2631" d="m 324,150 c -5.52,0 -10,4.48 -10,10 0,5.52 4.48,10 10,10 5.52,0 10,-4.48 10,-10 0,-5.52 -4.48,-10 -10,-10 z m 0,7 c 1.656,0 3,1.344 3,3 0,1.656 -1.344,3 -3,3 -1.656,0 -3,-1.344 -3,-3 0,-1.656 1.344,-3 3,-3 z" style="fill:url(#linearGradient2637);fill-opacity:1"/><path id="path2633" d="m 324,150 c -5.52,0 -10,4.48 -10,10 0,5.52 4.48,10 10,10 5.52,0 10,-4.48 10,-10 0,-5.52 -4.48,-10 -10,-10 z m 0,7 c 1.656,0 3,1.344 3,3 0,1.656 -1.344,3 -3,3 -1.656,0 -3,-1.344 -3,-3 0,-1.656 1.344,-3 3,-3 z" style="opacity:.15;fill:#000;fill-opacity:1"/></g><g id="checkbox-mixed-hover" transform="translate(-268,232)"><rect style="opacity:0;fill:#000;stroke-width:3;stroke-linecap:round;stroke-linejoin:round;paint-order:stroke fill markers" id="rect2659" width="24" height="24" x="284" y="176" rx="0" ry="0"/><path id="path2661" d="m 296,178 c -5.52,0 -10,4.48 -10,10 0,5.52 4.48,10 10,10 5.52,0 10,-4.48 10,-10 0,-5.52 -4.48,-10 -10,-10 z m -5,9 h 10 v 2 h -10 z" style="fill:url(#linearGradient2673);fill-opacity:1"/><path id="path2691" d="m 296,178 c -5.52,0 -10,4.48 -10,10 0,5.52 4.48,10 10,10 5.52,0 10,-4.48 10,-10 0,-5.52 -4.48,-10 -10,-10 z m -5,9 h 10 v 2 h -10 z" style="opacity:.15;fill:#fff;fill-opacity:1"/></g><g id="radio-mixed-hover" transform="translate(-268,232)"><rect style="opacity:0;fill:#000;stroke-width:3;stroke-linecap:round;stroke-linejoin:round;paint-order:stroke fill markers" id="rect2665" width="24" height="24" x="312" y="176" rx="0" ry="0"/><path id="path2667" d="m 324,178 c -5.52,0 -10,4.48 -10,10 0,5.52 4.48,10 10,10 5.52,0 10,-4.48 10,-10 0,-5.52 -4.48,-10 -10,-10 z m -5,9 h 10 v 2 h -10 z" style="fill:url(#linearGradient2671);fill-opacity:1"/><path id="path2693" d="m 324,178 c -5.52,0 -10,4.48 -10,10 0,5.52 4.48,10 10,10 5.52,0 10,-4.48 10,-10 0,-5.52 -4.48,-10 -10,-10 z m -5,9 h 10 v 2 h -10 z" style="opacity:.15;fill:#fff;fill-opacity:1"/></g><g id="checkbox-mixed-active" transform="translate(-268,260)"><rect style="opacity:0;fill:#000;stroke-width:3;stroke-linecap:round;stroke-linejoin:round;paint-order:stroke fill markers" id="rect2675" width="24" height="24" x="284" y="176" rx="0" ry="0"/><path id="path2677" d="m 296,178 c -5.52,0 -10,4.48 -10,10 0,5.52 4.48,10 10,10 5.52,0 10,-4.48 10,-10 0,-5.52 -4.48,-10 -10,-10 z m -5,9 h 10 v 2 h -10 z" style="fill:url(#linearGradient2689);fill-opacity:1"/><path id="path2731" d="m 296,178 c -5.52,0 -10,4.48 -10,10 0,5.52 4.48,10 10,10 5.52,0 10,-4.48 10,-10 0,-5.52 -4.48,-10 -10,-10 z m -5,9 h 10 v 2 h -10 z" style="opacity:.15;fill:#000;fill-opacity:1"/></g><g id="radio-mixed-active" transform="translate(-268,260)"><rect style="opacity:0;fill:#000;stroke-width:3;stroke-linecap:round;stroke-linejoin:round;paint-order:stroke fill markers" id="rect2681" width="24" height="24" x="312" y="176" rx="0" ry="0"/><path id="path2683" d="m 324,178 c -5.52,0 -10,4.48 -10,10 0,5.52 4.48,10 10,10 5.52,0 10,-4.48 10,-10 0,-5.52 -4.48,-10 -10,-10 z m -5,9 h 10 v 2 h -10 z" style="fill:url(#linearGradient2687);fill-opacity:1"/><path id="path2733" d="m 324,178 c -5.52,0 -10,4.48 -10,10 0,5.52 4.48,10 10,10 5.52,0 10,-4.48 10,-10 0,-5.52 -4.48,-10 -10,-10 z m -5,9 h 10 v 2 h -10 z" style="opacity:.15;fill:#000;fill-opacity:1"/></g><g id="checkbox-checked-disabled" transform="translate(-268,204)" style="opacity:.35"><rect style="opacity:0;fill:#000;stroke-width:3;stroke-linecap:round;stroke-linejoin:round;paint-order:stroke fill markers" id="rect2817" width="24" height="24" x="284" y="148" rx="0" ry="0"/><path id="path2819" d="m 296,150 c -5.52,0 -10,4.48 -10,10 0,5.52 4.48,10 10,10 5.52,0 10,-4.48 10,-10 0,-5.52 -4.48,-10 -10,-10 z m 5.5898,4.5801 L 303,156 l -9,9 -5,-5 1.4102,-1.4102 3.5898,3.5801 z" style="fill:url(#linearGradient2831);fill-opacity:1"/></g><g id="radio-checked-disabled" transform="translate(-268,204)" style="opacity:.35"><rect style="opacity:0;fill:#000;stroke-width:3;stroke-linecap:round;stroke-linejoin:round;paint-order:stroke fill markers" id="rect2823" width="24" height="24" x="312" y="148" rx="0" ry="0"/><path id="path2825" d="m 324,150 c -5.52,0 -10,4.48 -10,10 0,5.52 4.48,10 10,10 5.52,0 10,-4.48 10,-10 0,-5.52 -4.48,-10 -10,-10 z m 0,7 c 1.656,0 3,1.344 3,3 0,1.656 -1.344,3 -3,3 -1.656,0 -3,-1.344 -3,-3 0,-1.656 1.344,-3 3,-3 z" style="fill:url(#linearGradient2829);fill-opacity:1"/></g><g id="checkbox-mixed-disabled" transform="translate(-268,288)" style="opacity:.35"><rect style="opacity:0;fill:#000;stroke-width:3;stroke-linecap:round;stroke-linejoin:round;paint-order:stroke fill markers" id="rect2851" width="24" height="24" x="284" y="176" rx="0" ry="0"/><path id="path2853" d="m 296,178 c -5.52,0 -10,4.48 -10,10 0,5.52 4.48,10 10,10 5.52,0 10,-4.48 10,-10 0,-5.52 -4.48,-10 -10,-10 z m -5,9 h 10 v 2 h -10 z" style="fill:url(#linearGradient2865);fill-opacity:1"/></g><g id="radio-mixed-disabled" transform="translate(-268,288)" style="opacity:.35"><rect style="opacity:0;fill:#000;stroke-width:3;stroke-linecap:round;stroke-linejoin:round;paint-order:stroke fill markers" id="rect2857" width="24" height="24" x="312" y="176" rx="0" ry="0"/><path id="path2859" d="m 324,178 c -5.52,0 -10,4.48 -10,10 0,5.52 4.48,10 10,10 5.52,0 10,-4.48 10,-10 0,-5.52 -4.48,-10 -10,-10 z m -5,9 h 10 v 2 h -10 z" style="fill:url(#linearGradient2863);fill-opacity:1"/></g></g></svg>