<svg xmlns="http://www.w3.org/2000/svg" xmlns:svg="http://www.w3.org/2000/svg" xmlns:xlink="http://www.w3.org/1999/xlink" id="svg200" width="400" height="200" version="1.1" viewBox="0 0 400 200"><defs id="defs83"><linearGradient id="color-on-primary-dark" x1="6.212" x2="29.25" y1="11.894" y2="11.894" gradientTransform="scale(1.1453 .87314)" gradientUnits="userSpaceOnUse"><stop id="stop2" offset="1" stop-color="#FFF"/></linearGradient><linearGradient id="color-on-primary-light" x1="6.212" x2="29.25" y1="11.894" y2="11.894" gradientTransform="scale(1.1453 .87314)" gradientUnits="userSpaceOnUse"><stop id="stop5" offset="1" stop-color="#000" stop-opacity=".87"/></linearGradient><linearGradient id="color-primary-dark"><stop id="stop14" offset="1" stop-color="#1A73E8"/></linearGradient><linearGradient id="color-primary-light"><stop id="stop17" offset="1" stop-color="#3281ea"/></linearGradient><linearGradient id="color-background"><stop id="stop20" offset="1" stop-color="#F2F2F2"/></linearGradient><linearGradient id="color-background-dark"><stop id="stop23" offset="1" stop-color="#212121"/></linearGradient><linearGradient id="color-surface" x2="40" gradientUnits="userSpaceOnUse"><stop id="stop26" offset="1" stop-color="#FFF"/></linearGradient><linearGradient id="color-surface-dark" x2="40" gradientUnits="userSpaceOnUse"><stop id="stop29" offset="1" stop-color="#3C3C3C"/></linearGradient><g id="base-selectionmode-checkbox"><rect id="rect51" width="40" height="40" fill="none"/><rect id="rect53" width="36" height="36" x="2" y="2" rx="4"/></g><g id="base-selectionmode-checkmark"><path id="path56" d="M9 16.17L4.83 12l-1.42 1.41L9 19 21 7l-1.41-1.41z" transform="matrix(1.5 0 0 1.5 2 2)"/></g><linearGradient id="linearGradient976" x2="200" gradientUnits="userSpaceOnUse" xlink:href="#color-background"/><linearGradient id="linearGradient1008" x2="40" gradientUnits="userSpaceOnUse" xlink:href="#color-primary-dark"/><linearGradient id="linearGradient1041" x2="200" gradientTransform="translate(200)" gradientUnits="userSpaceOnUse" xlink:href="#color-background-dark"/><linearGradient id="linearGradient1073" x2="40" gradientUnits="userSpaceOnUse" xlink:href="#color-primary-light"/><linearGradient id="linearGradient991" x2="24" gradientUnits="userSpaceOnUse" xlink:href="#primary-dark"/><linearGradient id="linearGradient2319" x1="4" x2="19.997" y1="11.999" y2="11.999" gradientUnits="userSpaceOnUse" xlink:href="#color-base"/><linearGradient id="color-base" x2="40" gradientUnits="userSpaceOnUse"><stop id="stop26-3" offset="1" stop-color="#FFF"/></linearGradient><linearGradient id="linearGradient2345" x1="6" x2="18" y1="12" y2="12" gradientUnits="userSpaceOnUse" xlink:href="#color-primary-light"/><linearGradient id="linearGradient1401" x2="24" gradientUnits="userSpaceOnUse" xlink:href="#primary-dark"/><linearGradient id="linearGradient1843" x2="24" gradientUnits="userSpaceOnUse" xlink:href="#primary-dark"/><linearGradient id="linearGradient3060" x1="4" x2="19.997" y1="11.999" y2="11.999" gradientUnits="userSpaceOnUse" xlink:href="#color-base-dark"/><linearGradient id="color-base-dark" x2="40" gradientUnits="userSpaceOnUse"><stop id="stop29-1" offset="1" stop-color="#2c2c2c"/></linearGradient><linearGradient id="linearGradient3090" x1="6" x2="18" y1="12" y2="12" gradientUnits="userSpaceOnUse" xlink:href="#color-primary-light"/><linearGradient id="linearGradient1837" x2="24" gradientUnits="userSpaceOnUse" xlink:href="#primary-dark"/><linearGradient id="linearGradient1298" x1="4" x2="19.997" y1="11.999" y2="11.999" gradientUnits="userSpaceOnUse" xlink:href="#color-base"/><linearGradient id="linearGradient1300" x1="6" x2="18" y1="12" y2="12" gradientUnits="userSpaceOnUse" xlink:href="#color-primary-dark"/><linearGradient id="linearGradient1302" x1="6" x2="18" y1="12" y2="12" gradientUnits="userSpaceOnUse" xlink:href="#color-primary-dark"/><linearGradient id="linearGradient1304" x1="4" x2="19.997" y1="11.999" y2="11.999" gradientUnits="userSpaceOnUse" xlink:href="#color-base-dark"/></defs><rect id="rect85" width="200" height="200" fill="url(#linearGradient976)"/><g id="selectionmode-checkbox-unchecked" transform="translate(8,72)"><use id="use127" width="100%" height="100%" fill="url(#color-surface)" xlink:href="#base-selectionmode-checkbox"/></g><g id="selectionmode-checkbox-checked" transform="translate(56,72)"><use id="use130" width="100%" height="100%" fill="url(#linearGradient1008)" xlink:href="#base-selectionmode-checkbox"/><use id="use132" width="100%" height="100%" fill="url(#color-on-primary-dark)" xlink:href="#base-selectionmode-checkmark"/></g><rect id="rect135" width="200" height="200" x="200" fill="url(#linearGradient1041)"/><g id="selectionmode-checkbox-unchecked-dark" transform="translate(208,72)"><use id="use177" width="100%" height="100%" fill="url(#color-surface-dark)" xlink:href="#base-selectionmode-checkbox"/></g><g id="selectionmode-checkbox-checked-dark" transform="translate(256,72)"><use id="use180" width="100%" height="100%" fill="url(#linearGradient1073)" xlink:href="#base-selectionmode-checkbox"/><use id="use182" width="100%" height="100%" fill="url(#color-on-primary-light)" xlink:href="#base-selectionmode-checkmark"/></g><g id="scale-horz-marks-before-slider" transform="translate(20,10)"><g id="use95" style="fill:url(#linearGradient991)"><rect id="rect985" width="24" height="24" x="0" y="0" fill="none"/><path id="path987" d="m 6,6 h 6 a 6,6 0 1 1 -6,6 z" transform="rotate(45,12,12)" style="fill:url(#linearGradient1298);fill-opacity:1;stroke:url(#linearGradient1300);stroke-width:4;stroke-linecap:round;stroke-linejoin:miter;stroke-miterlimit:4;stroke-dasharray:none;stroke-opacity:1;paint-order:stroke fill markers"/></g></g><use id="scale-horz-marks-after-slider" width="100%" height="100%" x="0" y="0" transform="matrix(1,0,0,-1,35,44.000002)" xlink:href="#scale-horz-marks-before-slider"/><use id="scale-vert-marks-before-slider" width="100%" height="100%" x="0" y="0" transform="rotate(-90,67,-13)" xlink:href="#scale-horz-marks-before-slider"/><use id="scale-vert-marks-after-slider" width="100%" height="100%" x="0" y="0" transform="rotate(90,84.5,74.5)" xlink:href="#scale-horz-marks-before-slider"/><g id="scale-horz-marks-before-slider-disabled" transform="translate(20,38)"><g id="g1387" style="fill:url(#linearGradient1401)"><rect id="rect1383" width="24" height="24" x="0" y="0" fill="none"/><path id="path1385" d="m 6,6 h 6 a 6,6 0 1 1 -6,6 z" transform="rotate(45,12,12)" style="fill:url(#linearGradient2319);fill-opacity:1;stroke:url(#linearGradient1302);stroke-width:4;stroke-linecap:round;stroke-linejoin:miter;stroke-miterlimit:4;stroke-dasharray:none;stroke-opacity:.25;paint-order:stroke fill markers"/></g></g><use id="scale-horz-marks-after-slider-disabled" width="100%" height="100%" x="0" y="0" transform="matrix(1,0,0,-1,35,99.999999)" xlink:href="#scale-horz-marks-before-slider-disabled"/><use id="scale-vert-marks-before-slider-disabled" width="100%" height="100%" x="0" y="0" transform="rotate(-90,67,15)" xlink:href="#scale-horz-marks-before-slider-disabled"/><use id="scale-vert-marks-after-slider-disabled" width="100%" height="100%" x="0" y="0" transform="rotate(90,84.5,102.5)" xlink:href="#scale-horz-marks-before-slider-disabled"/><g id="scale-horz-marks-before-slider-dark" transform="translate(224,10)"><g id="g1821" style="fill:url(#linearGradient1843)"><rect id="rect1817" width="24" height="24" x="0" y="0" fill="none"/><path id="path1819" d="m 6,6 h 6 a 6,6 0 1 1 -6,6 z" transform="rotate(45,12,12)" style="fill:url(#linearGradient1304);fill-opacity:1;stroke:url(#linearGradient3090);stroke-width:4;stroke-linecap:round;stroke-linejoin:miter;stroke-miterlimit:4;stroke-dasharray:none;stroke-opacity:1;paint-order:stroke fill markers"/></g></g><g id="scale-horz-marks-before-slider-disabled-dark" transform="translate(224,38)"><g id="g1829" style="fill:url(#linearGradient1837)"><rect id="rect1825" width="24" height="24" x="0" y="0" fill="none"/><path id="path1827" d="m 6,6 h 6 a 6,6 0 1 1 -6,6 z" transform="rotate(45,12,12)" style="fill:url(#linearGradient3060);fill-opacity:1;stroke:url(#linearGradient2345);stroke-width:4;stroke-linecap:round;stroke-linejoin:miter;stroke-miterlimit:4;stroke-dasharray:none;stroke-opacity:.3;paint-order:stroke fill markers"/></g></g><use id="scale-horz-marks-after-slider-dark" width="100%" height="100%" x="0" y="0" transform="rotate(180,253.5,22)" xlink:href="#scale-horz-marks-before-slider-dark"/><use id="scale-horz-marks-after-slider-disabled-dark" width="100%" height="100%" x="0" y="0" transform="rotate(180,253.5,50)" xlink:href="#scale-horz-marks-before-slider-disabled-dark"/><use id="scale-vert-marks-before-slider-dark" width="100%" height="100%" x="0" y="0" transform="rotate(-90,271,-13)" xlink:href="#scale-horz-marks-before-slider-dark"/><use id="scale-vert-marks-before-slider-disabled-dark" width="100%" height="100%" x="0" y="0" transform="rotate(-90,271,15)" xlink:href="#scale-horz-marks-before-slider-disabled-dark"/><use id="scale-vert-marks-after-slider-dark" width="100%" height="100%" x="0" y="0" transform="rotate(90,288.5,74.5)" xlink:href="#scale-horz-marks-before-slider-dark"/><use id="scale-vert-marks-after-slider-disabled-dark" width="100%" height="100%" x="0" y="0" transform="rotate(90,288.5,102.5)" xlink:href="#scale-horz-marks-before-slider-disabled-dark"/></svg>